<svg width="680" height="124" viewBox="0 0 680 124" fill="none" xmlns="http://www.w3.org/2000/svg">
<mask id="path-1-outside-1_4205_178" maskUnits="userSpaceOnUse" x="2" y="18" width="667" height="85" fill="black">
<rect fill="white" x="2" y="18" width="667" height="85"/>
<path d="M43.2 101.944C37.728 101.944 32.608 101.016 27.84 99.16C23.104 97.336 18.928 94.744 15.312 91.384C11.728 88.056 8.912 84.12 6.864 79.576C4.848 75 3.84 69.992 3.84 64.552C3.84 59.144 4.848 54.056 6.864 49.288C8.912 44.52 11.728 40.344 15.312 36.76C18.928 33.144 23.12 30.328 27.888 28.312C32.656 26.264 37.76 25.24 43.2 25.24C48.64 25.24 53.744 26.264 58.512 28.312C63.28 30.36 67.456 33.192 71.04 36.808C74.624 40.424 77.424 44.616 79.44 49.384C81.488 54.12 82.512 59.176 82.512 64.552C82.512 67.464 82.144 70.344 81.408 73.192C80.704 76.008 79.648 78.568 78.24 80.872C76.864 83.144 75.168 84.968 73.152 86.344C71.136 87.688 68.832 88.36 66.24 88.36C64.32 88.36 62.384 87.944 60.432 87.112C58.512 86.248 56.864 85.096 55.488 83.656C54.112 82.184 53.28 80.568 52.992 78.808C51.744 80.28 50.176 81.464 48.288 82.36C46.432 83.224 44.32 83.656 41.952 83.656C38.464 83.656 35.264 82.808 32.352 81.112C29.472 79.384 27.168 77.08 25.44 74.2C23.744 71.288 22.896 68.072 22.896 64.552C22.896 61.032 23.744 57.832 25.44 54.952C27.168 52.072 29.472 49.784 32.352 48.088C35.264 46.36 38.464 45.496 41.952 45.496C44.192 45.496 46.368 45.896 48.48 46.696C50.624 47.496 52.288 48.6 53.472 50.008V46.456L61.104 47.944V73.96C61.104 75.272 61.536 76.344 62.4 77.176C63.296 77.976 64.368 78.376 65.616 78.376C67.248 78.376 68.56 77.624 69.552 76.12C70.576 74.584 71.328 72.744 71.808 70.6C72.288 68.424 72.528 66.408 72.528 64.552C72.528 60.488 71.76 56.68 70.224 53.128C68.688 49.576 66.56 46.456 63.84 43.768C61.152 41.08 58.032 38.984 54.48 37.48C50.96 35.976 47.2 35.224 43.2 35.224C39.168 35.224 35.376 35.992 31.824 37.528C28.272 39.032 25.136 41.128 22.416 43.816C19.728 46.504 17.616 49.624 16.08 53.176C14.576 56.696 13.824 60.488 13.824 64.552C13.824 68.616 14.576 72.328 16.08 75.688C17.584 79.048 19.68 81.944 22.368 84.376C25.088 86.776 28.208 88.648 31.728 89.992C35.28 91.336 39.104 92.008 43.2 92.008V101.944ZM42.72 76.072C44.864 76.072 46.736 75.512 48.336 74.392C49.936 73.272 51.184 71.816 52.08 70.024C52.976 68.2 53.424 66.28 53.424 64.264C53.424 62.248 52.992 60.408 52.128 58.744C51.264 57.048 50.032 55.688 48.432 54.664C46.832 53.608 44.928 53.08 42.72 53.08C40.608 53.08 38.672 53.592 36.912 54.616C35.184 55.64 33.792 57.032 32.736 58.792C31.712 60.52 31.2 62.44 31.2 64.552C31.2 66.696 31.728 68.648 32.784 70.408C33.84 72.136 35.232 73.512 36.96 74.536C38.72 75.56 40.64 76.072 42.72 76.072ZM117.064 41.656C121.736 41.656 125.976 42.792 129.784 45.064C133.624 47.336 136.68 50.392 138.952 54.232C141.224 58.04 142.36 62.28 142.36 66.952C142.36 70.44 141.704 73.72 140.392 76.792C139.08 79.832 137.256 82.52 134.92 84.856C132.616 87.16 129.928 88.968 126.856 90.28C123.816 91.592 120.552 92.248 117.064 92.248C113.704 92.248 110.76 91.48 108.232 89.944C105.736 88.376 103.688 86.376 102.088 83.944V91H92.1038V19H102.088V49.96C103.688 47.496 105.736 45.496 108.232 43.96C110.76 42.424 113.704 41.656 117.064 41.656ZM116.968 82.552C119.752 82.552 122.296 81.848 124.6 80.44C126.904 79.032 128.728 77.144 130.072 74.776C131.448 72.408 132.136 69.8 132.136 66.952C132.136 64.04 131.448 61.4 130.072 59.032C128.696 56.664 126.856 54.792 124.552 53.416C122.248 52.008 119.72 51.304 116.968 51.304C114.184 51.304 111.736 52.008 109.624 53.416C107.512 54.824 105.864 56.712 104.68 59.08C103.496 61.448 102.904 64.072 102.904 66.952C102.904 69.832 103.496 72.456 104.68 74.824C105.864 77.192 107.512 79.08 109.624 80.488C111.736 81.864 114.184 82.552 116.968 82.552ZM171.161 92.248C166.745 92.248 162.713 91.112 159.065 88.84C155.449 86.568 152.553 83.528 150.377 79.72C148.233 75.88 147.161 71.64 147.161 67C147.161 63.48 147.785 60.2 149.033 57.16C150.281 54.088 151.993 51.4 154.169 49.096C156.377 46.76 158.937 44.936 161.849 43.624C164.761 42.312 167.865 41.656 171.161 41.656C174.841 41.656 178.217 42.424 181.289 43.96C184.361 45.464 186.985 47.56 189.161 50.248C191.337 52.904 192.937 55.976 193.961 59.464C194.985 62.92 195.289 66.6 194.873 70.504H157.865C158.281 72.712 159.081 74.712 160.265 76.504C161.481 78.264 163.017 79.656 164.873 80.68C166.761 81.704 168.857 82.232 171.161 82.264C173.593 82.264 175.801 81.656 177.785 80.44C179.801 79.224 181.449 77.544 182.729 75.4L192.857 77.752C190.937 82.008 188.041 85.496 184.169 88.216C180.297 90.904 175.961 92.248 171.161 92.248ZM157.529 62.872H184.793C184.473 60.568 183.657 58.488 182.345 56.632C181.065 54.744 179.449 53.256 177.497 52.168C175.577 51.048 173.465 50.488 171.161 50.488C168.889 50.488 166.777 51.032 164.825 52.12C162.905 53.208 161.305 54.696 160.025 56.584C158.777 58.44 157.945 60.536 157.529 62.872ZM240.121 19H250.105V91H240.121V83.944C238.553 86.44 236.505 88.456 233.977 89.992C231.449 91.496 228.489 92.248 225.097 92.248C221.609 92.248 218.345 91.592 215.305 90.28C212.265 88.968 209.577 87.16 207.241 84.856C204.937 82.52 203.129 79.832 201.817 76.792C200.505 73.752 199.849 70.488 199.849 67C199.849 63.512 200.505 60.248 201.817 57.208C203.129 54.136 204.937 51.448 207.241 49.144C209.577 46.808 212.265 44.984 215.305 43.672C218.345 42.36 221.609 41.704 225.097 41.704C228.489 41.704 231.449 42.472 233.977 44.008C236.505 45.512 238.553 47.496 240.121 49.96V19ZM225.193 82.6C228.009 82.6 230.473 81.912 232.585 80.536C234.697 79.128 236.329 77.24 237.481 74.872C238.665 72.504 239.257 69.88 239.257 67C239.257 64.088 238.665 61.448 237.481 59.08C236.297 56.712 234.649 54.84 232.537 53.464C230.457 52.056 228.009 51.352 225.193 51.352C222.409 51.352 219.865 52.056 217.561 53.464C215.289 54.872 213.465 56.76 212.089 59.128C210.745 61.496 210.073 64.12 210.073 67C210.073 69.912 210.761 72.552 212.137 74.92C213.545 77.256 215.385 79.128 217.657 80.536C219.961 81.912 222.473 82.6 225.193 82.6ZM261.604 91V43H271.588V48.088C273.252 46.104 275.3 44.536 277.732 43.384C280.164 42.232 282.788 41.656 285.604 41.656C287.396 41.656 289.172 41.896 290.932 42.376L286.948 52.456C285.7 51.976 284.452 51.736 283.204 51.736C281.092 51.736 279.156 52.264 277.396 53.32C275.636 54.344 274.228 55.736 273.172 57.496C272.116 59.256 271.588 61.208 271.588 63.352V91H261.604ZM315.349 92.248C310.933 92.248 306.901 91.112 303.253 88.84C299.637 86.568 296.741 83.528 294.565 79.72C292.421 75.88 291.349 71.64 291.349 67C291.349 63.48 291.973 60.2 293.221 57.16C294.469 54.088 296.181 51.4 298.357 49.096C300.565 46.76 303.125 44.936 306.037 43.624C308.949 42.312 312.053 41.656 315.349 41.656C319.765 41.656 323.781 42.792 327.397 45.064C331.045 47.336 333.941 50.392 336.085 54.232C338.261 58.072 339.349 62.328 339.349 67C339.349 70.488 338.725 73.752 337.477 76.792C336.229 79.832 334.501 82.52 332.293 84.856C330.117 87.16 327.573 88.968 324.661 90.28C321.781 91.592 318.677 92.248 315.349 92.248ZM315.349 82.264C318.005 82.264 320.389 81.56 322.501 80.152C324.613 78.744 326.277 76.888 327.493 74.584C328.741 72.248 329.365 69.72 329.365 67C329.365 64.216 328.725 61.656 327.445 59.32C326.197 56.984 324.517 55.128 322.405 53.752C320.293 52.344 317.941 51.64 315.349 51.64C312.725 51.64 310.341 52.344 308.197 53.752C306.085 55.16 304.405 57.032 303.157 59.368C301.941 61.704 301.333 64.248 301.333 67C301.333 69.848 301.973 72.424 303.253 74.728C304.533 77.032 306.229 78.872 308.341 80.248C310.485 81.592 312.821 82.264 315.349 82.264ZM378.354 77.368L387.282 82.216C385.106 85.256 382.338 87.688 378.978 89.512C375.65 91.336 372.034 92.248 368.13 92.248C363.714 92.248 359.682 91.112 356.034 88.84C352.418 86.568 349.522 83.528 347.346 79.72C345.202 75.88 344.13 71.64 344.13 67C344.13 63.48 344.754 60.2 346.002 57.16C347.25 54.088 348.962 51.4 351.138 49.096C353.346 46.76 355.906 44.936 358.818 43.624C361.73 42.312 364.834 41.656 368.13 41.656C372.034 41.656 375.65 42.568 378.978 44.392C382.338 46.216 385.106 48.664 387.282 51.736L378.354 56.584C377.01 54.984 375.442 53.768 373.65 52.936C371.858 52.072 370.018 51.64 368.13 51.64C365.506 51.64 363.122 52.36 360.978 53.8C358.866 55.208 357.186 57.08 355.938 59.416C354.722 61.72 354.114 64.248 354.114 67C354.114 69.72 354.738 72.248 355.986 74.584C357.234 76.888 358.914 78.744 361.026 80.152C363.17 81.56 365.538 82.264 368.13 82.264C370.114 82.264 372.002 81.816 373.794 80.92C375.586 80.024 377.106 78.84 378.354 77.368ZM435.769 91H424.249L412.441 70.648L404.713 79.864V91H394.729V19H404.713V64.36L422.569 43H435.625L419.257 62.536L435.769 91ZM557.974 92.248C553.558 92.248 549.526 91.112 545.878 88.84C542.262 86.568 539.366 83.528 537.19 79.72C535.046 75.88 533.974 71.64 533.974 67C533.974 63.48 534.598 60.2 535.846 57.16C537.094 54.088 538.806 51.4 540.982 49.096C543.19 46.76 545.75 44.936 548.662 43.624C551.574 42.312 554.678 41.656 557.974 41.656C562.39 41.656 566.406 42.792 570.022 45.064C573.67 47.336 576.566 50.392 578.71 54.232C580.886 58.072 581.974 62.328 581.974 67C581.974 70.488 581.35 73.752 580.102 76.792C578.854 79.832 577.126 82.52 574.918 84.856C572.742 87.16 570.198 88.968 567.286 90.28C564.406 91.592 561.302 92.248 557.974 92.248ZM557.974 82.264C560.63 82.264 563.014 81.56 565.126 80.152C567.238 78.744 568.902 76.888 570.118 74.584C571.366 72.248 571.99 69.72 571.99 67C571.99 64.216 571.35 61.656 570.07 59.32C568.822 56.984 567.142 55.128 565.03 53.752C562.918 52.344 560.566 51.64 557.974 51.64C555.35 51.64 552.966 52.344 550.822 53.752C548.71 55.16 547.03 57.032 545.782 59.368C544.566 61.704 543.958 64.248 543.958 67C543.958 69.848 544.598 72.424 545.878 74.728C547.158 77.032 548.854 78.872 550.966 80.248C553.11 81.592 555.446 82.264 557.974 82.264ZM589.729 91V43H599.713V48.088C601.377 46.104 603.425 44.536 605.857 43.384C608.289 42.232 610.913 41.656 613.729 41.656C615.521 41.656 617.297 41.896 619.057 42.376L615.073 52.456C613.825 51.976 612.577 51.736 611.329 51.736C609.217 51.736 607.281 52.264 605.521 53.32C603.761 54.344 602.353 55.736 601.297 57.496C600.241 59.256 599.713 61.208 599.713 63.352V91H589.729ZM643.474 92.248C639.058 92.248 635.026 91.112 631.378 88.84C627.762 86.568 624.866 83.528 622.69 79.72C620.546 75.88 619.474 71.64 619.474 67C619.474 63.48 620.098 60.2 621.346 57.16C622.594 54.088 624.306 51.4 626.482 49.096C628.69 46.76 631.25 44.936 634.162 43.624C637.074 42.312 640.178 41.656 643.474 41.656C647.154 41.656 650.53 42.424 653.602 43.96C656.674 45.464 659.298 47.56 661.474 50.248C663.65 52.904 665.25 55.976 666.274 59.464C667.298 62.92 667.602 66.6 667.186 70.504H630.178C630.594 72.712 631.394 74.712 632.578 76.504C633.794 78.264 635.33 79.656 637.186 80.68C639.074 81.704 641.17 82.232 643.474 82.264C645.906 82.264 648.114 81.656 650.098 80.44C652.114 79.224 653.762 77.544 655.042 75.4L665.17 77.752C663.25 82.008 660.354 85.496 656.482 88.216C652.61 90.904 648.274 92.248 643.474 92.248ZM629.842 62.872H657.106C656.786 60.568 655.97 58.488 654.658 56.632C653.378 54.744 651.762 53.256 649.81 52.168C647.89 51.048 645.778 50.488 643.474 50.488C641.202 50.488 639.09 51.032 637.138 52.12C635.218 53.208 633.618 54.696 632.338 56.584C631.09 58.44 630.258 60.536 629.842 62.872Z"/>
</mask>
<path d="M43.2 101.944C37.728 101.944 32.608 101.016 27.84 99.16C23.104 97.336 18.928 94.744 15.312 91.384C11.728 88.056 8.912 84.12 6.864 79.576C4.848 75 3.84 69.992 3.84 64.552C3.84 59.144 4.848 54.056 6.864 49.288C8.912 44.52 11.728 40.344 15.312 36.76C18.928 33.144 23.12 30.328 27.888 28.312C32.656 26.264 37.76 25.24 43.2 25.24C48.64 25.24 53.744 26.264 58.512 28.312C63.28 30.36 67.456 33.192 71.04 36.808C74.624 40.424 77.424 44.616 79.44 49.384C81.488 54.12 82.512 59.176 82.512 64.552C82.512 67.464 82.144 70.344 81.408 73.192C80.704 76.008 79.648 78.568 78.24 80.872C76.864 83.144 75.168 84.968 73.152 86.344C71.136 87.688 68.832 88.36 66.24 88.36C64.32 88.36 62.384 87.944 60.432 87.112C58.512 86.248 56.864 85.096 55.488 83.656C54.112 82.184 53.28 80.568 52.992 78.808C51.744 80.28 50.176 81.464 48.288 82.36C46.432 83.224 44.32 83.656 41.952 83.656C38.464 83.656 35.264 82.808 32.352 81.112C29.472 79.384 27.168 77.08 25.44 74.2C23.744 71.288 22.896 68.072 22.896 64.552C22.896 61.032 23.744 57.832 25.44 54.952C27.168 52.072 29.472 49.784 32.352 48.088C35.264 46.36 38.464 45.496 41.952 45.496C44.192 45.496 46.368 45.896 48.48 46.696C50.624 47.496 52.288 48.6 53.472 50.008V46.456L61.104 47.944V73.96C61.104 75.272 61.536 76.344 62.4 77.176C63.296 77.976 64.368 78.376 65.616 78.376C67.248 78.376 68.56 77.624 69.552 76.12C70.576 74.584 71.328 72.744 71.808 70.6C72.288 68.424 72.528 66.408 72.528 64.552C72.528 60.488 71.76 56.68 70.224 53.128C68.688 49.576 66.56 46.456 63.84 43.768C61.152 41.08 58.032 38.984 54.48 37.48C50.96 35.976 47.2 35.224 43.2 35.224C39.168 35.224 35.376 35.992 31.824 37.528C28.272 39.032 25.136 41.128 22.416 43.816C19.728 46.504 17.616 49.624 16.08 53.176C14.576 56.696 13.824 60.488 13.824 64.552C13.824 68.616 14.576 72.328 16.08 75.688C17.584 79.048 19.68 81.944 22.368 84.376C25.088 86.776 28.208 88.648 31.728 89.992C35.28 91.336 39.104 92.008 43.2 92.008V101.944ZM42.72 76.072C44.864 76.072 46.736 75.512 48.336 74.392C49.936 73.272 51.184 71.816 52.08 70.024C52.976 68.2 53.424 66.28 53.424 64.264C53.424 62.248 52.992 60.408 52.128 58.744C51.264 57.048 50.032 55.688 48.432 54.664C46.832 53.608 44.928 53.08 42.72 53.08C40.608 53.08 38.672 53.592 36.912 54.616C35.184 55.64 33.792 57.032 32.736 58.792C31.712 60.52 31.2 62.44 31.2 64.552C31.2 66.696 31.728 68.648 32.784 70.408C33.84 72.136 35.232 73.512 36.96 74.536C38.72 75.56 40.64 76.072 42.72 76.072ZM117.064 41.656C121.736 41.656 125.976 42.792 129.784 45.064C133.624 47.336 136.68 50.392 138.952 54.232C141.224 58.04 142.36 62.28 142.36 66.952C142.36 70.44 141.704 73.72 140.392 76.792C139.08 79.832 137.256 82.52 134.92 84.856C132.616 87.16 129.928 88.968 126.856 90.28C123.816 91.592 120.552 92.248 117.064 92.248C113.704 92.248 110.76 91.48 108.232 89.944C105.736 88.376 103.688 86.376 102.088 83.944V91H92.1038V19H102.088V49.96C103.688 47.496 105.736 45.496 108.232 43.96C110.76 42.424 113.704 41.656 117.064 41.656ZM116.968 82.552C119.752 82.552 122.296 81.848 124.6 80.44C126.904 79.032 128.728 77.144 130.072 74.776C131.448 72.408 132.136 69.8 132.136 66.952C132.136 64.04 131.448 61.4 130.072 59.032C128.696 56.664 126.856 54.792 124.552 53.416C122.248 52.008 119.72 51.304 116.968 51.304C114.184 51.304 111.736 52.008 109.624 53.416C107.512 54.824 105.864 56.712 104.68 59.08C103.496 61.448 102.904 64.072 102.904 66.952C102.904 69.832 103.496 72.456 104.68 74.824C105.864 77.192 107.512 79.08 109.624 80.488C111.736 81.864 114.184 82.552 116.968 82.552ZM171.161 92.248C166.745 92.248 162.713 91.112 159.065 88.84C155.449 86.568 152.553 83.528 150.377 79.72C148.233 75.88 147.161 71.64 147.161 67C147.161 63.48 147.785 60.2 149.033 57.16C150.281 54.088 151.993 51.4 154.169 49.096C156.377 46.76 158.937 44.936 161.849 43.624C164.761 42.312 167.865 41.656 171.161 41.656C174.841 41.656 178.217 42.424 181.289 43.96C184.361 45.464 186.985 47.56 189.161 50.248C191.337 52.904 192.937 55.976 193.961 59.464C194.985 62.92 195.289 66.6 194.873 70.504H157.865C158.281 72.712 159.081 74.712 160.265 76.504C161.481 78.264 163.017 79.656 164.873 80.68C166.761 81.704 168.857 82.232 171.161 82.264C173.593 82.264 175.801 81.656 177.785 80.44C179.801 79.224 181.449 77.544 182.729 75.4L192.857 77.752C190.937 82.008 188.041 85.496 184.169 88.216C180.297 90.904 175.961 92.248 171.161 92.248ZM157.529 62.872H184.793C184.473 60.568 183.657 58.488 182.345 56.632C181.065 54.744 179.449 53.256 177.497 52.168C175.577 51.048 173.465 50.488 171.161 50.488C168.889 50.488 166.777 51.032 164.825 52.12C162.905 53.208 161.305 54.696 160.025 56.584C158.777 58.44 157.945 60.536 157.529 62.872ZM240.121 19H250.105V91H240.121V83.944C238.553 86.44 236.505 88.456 233.977 89.992C231.449 91.496 228.489 92.248 225.097 92.248C221.609 92.248 218.345 91.592 215.305 90.28C212.265 88.968 209.577 87.16 207.241 84.856C204.937 82.52 203.129 79.832 201.817 76.792C200.505 73.752 199.849 70.488 199.849 67C199.849 63.512 200.505 60.248 201.817 57.208C203.129 54.136 204.937 51.448 207.241 49.144C209.577 46.808 212.265 44.984 215.305 43.672C218.345 42.36 221.609 41.704 225.097 41.704C228.489 41.704 231.449 42.472 233.977 44.008C236.505 45.512 238.553 47.496 240.121 49.96V19ZM225.193 82.6C228.009 82.6 230.473 81.912 232.585 80.536C234.697 79.128 236.329 77.24 237.481 74.872C238.665 72.504 239.257 69.88 239.257 67C239.257 64.088 238.665 61.448 237.481 59.08C236.297 56.712 234.649 54.84 232.537 53.464C230.457 52.056 228.009 51.352 225.193 51.352C222.409 51.352 219.865 52.056 217.561 53.464C215.289 54.872 213.465 56.76 212.089 59.128C210.745 61.496 210.073 64.12 210.073 67C210.073 69.912 210.761 72.552 212.137 74.92C213.545 77.256 215.385 79.128 217.657 80.536C219.961 81.912 222.473 82.6 225.193 82.6ZM261.604 91V43H271.588V48.088C273.252 46.104 275.3 44.536 277.732 43.384C280.164 42.232 282.788 41.656 285.604 41.656C287.396 41.656 289.172 41.896 290.932 42.376L286.948 52.456C285.7 51.976 284.452 51.736 283.204 51.736C281.092 51.736 279.156 52.264 277.396 53.32C275.636 54.344 274.228 55.736 273.172 57.496C272.116 59.256 271.588 61.208 271.588 63.352V91H261.604ZM315.349 92.248C310.933 92.248 306.901 91.112 303.253 88.84C299.637 86.568 296.741 83.528 294.565 79.72C292.421 75.88 291.349 71.64 291.349 67C291.349 63.48 291.973 60.2 293.221 57.16C294.469 54.088 296.181 51.4 298.357 49.096C300.565 46.76 303.125 44.936 306.037 43.624C308.949 42.312 312.053 41.656 315.349 41.656C319.765 41.656 323.781 42.792 327.397 45.064C331.045 47.336 333.941 50.392 336.085 54.232C338.261 58.072 339.349 62.328 339.349 67C339.349 70.488 338.725 73.752 337.477 76.792C336.229 79.832 334.501 82.52 332.293 84.856C330.117 87.16 327.573 88.968 324.661 90.28C321.781 91.592 318.677 92.248 315.349 92.248ZM315.349 82.264C318.005 82.264 320.389 81.56 322.501 80.152C324.613 78.744 326.277 76.888 327.493 74.584C328.741 72.248 329.365 69.72 329.365 67C329.365 64.216 328.725 61.656 327.445 59.32C326.197 56.984 324.517 55.128 322.405 53.752C320.293 52.344 317.941 51.64 315.349 51.64C312.725 51.64 310.341 52.344 308.197 53.752C306.085 55.16 304.405 57.032 303.157 59.368C301.941 61.704 301.333 64.248 301.333 67C301.333 69.848 301.973 72.424 303.253 74.728C304.533 77.032 306.229 78.872 308.341 80.248C310.485 81.592 312.821 82.264 315.349 82.264ZM378.354 77.368L387.282 82.216C385.106 85.256 382.338 87.688 378.978 89.512C375.65 91.336 372.034 92.248 368.13 92.248C363.714 92.248 359.682 91.112 356.034 88.84C352.418 86.568 349.522 83.528 347.346 79.72C345.202 75.88 344.13 71.64 344.13 67C344.13 63.48 344.754 60.2 346.002 57.16C347.25 54.088 348.962 51.4 351.138 49.096C353.346 46.76 355.906 44.936 358.818 43.624C361.73 42.312 364.834 41.656 368.13 41.656C372.034 41.656 375.65 42.568 378.978 44.392C382.338 46.216 385.106 48.664 387.282 51.736L378.354 56.584C377.01 54.984 375.442 53.768 373.65 52.936C371.858 52.072 370.018 51.64 368.13 51.64C365.506 51.64 363.122 52.36 360.978 53.8C358.866 55.208 357.186 57.08 355.938 59.416C354.722 61.72 354.114 64.248 354.114 67C354.114 69.72 354.738 72.248 355.986 74.584C357.234 76.888 358.914 78.744 361.026 80.152C363.17 81.56 365.538 82.264 368.13 82.264C370.114 82.264 372.002 81.816 373.794 80.92C375.586 80.024 377.106 78.84 378.354 77.368ZM435.769 91H424.249L412.441 70.648L404.713 79.864V91H394.729V19H404.713V64.36L422.569 43H435.625L419.257 62.536L435.769 91ZM557.974 92.248C553.558 92.248 549.526 91.112 545.878 88.84C542.262 86.568 539.366 83.528 537.19 79.72C535.046 75.88 533.974 71.64 533.974 67C533.974 63.48 534.598 60.2 535.846 57.16C537.094 54.088 538.806 51.4 540.982 49.096C543.19 46.76 545.75 44.936 548.662 43.624C551.574 42.312 554.678 41.656 557.974 41.656C562.39 41.656 566.406 42.792 570.022 45.064C573.67 47.336 576.566 50.392 578.71 54.232C580.886 58.072 581.974 62.328 581.974 67C581.974 70.488 581.35 73.752 580.102 76.792C578.854 79.832 577.126 82.52 574.918 84.856C572.742 87.16 570.198 88.968 567.286 90.28C564.406 91.592 561.302 92.248 557.974 92.248ZM557.974 82.264C560.63 82.264 563.014 81.56 565.126 80.152C567.238 78.744 568.902 76.888 570.118 74.584C571.366 72.248 571.99 69.72 571.99 67C571.99 64.216 571.35 61.656 570.07 59.32C568.822 56.984 567.142 55.128 565.03 53.752C562.918 52.344 560.566 51.64 557.974 51.64C555.35 51.64 552.966 52.344 550.822 53.752C548.71 55.16 547.03 57.032 545.782 59.368C544.566 61.704 543.958 64.248 543.958 67C543.958 69.848 544.598 72.424 545.878 74.728C547.158 77.032 548.854 78.872 550.966 80.248C553.11 81.592 555.446 82.264 557.974 82.264ZM589.729 91V43H599.713V48.088C601.377 46.104 603.425 44.536 605.857 43.384C608.289 42.232 610.913 41.656 613.729 41.656C615.521 41.656 617.297 41.896 619.057 42.376L615.073 52.456C613.825 51.976 612.577 51.736 611.329 51.736C609.217 51.736 607.281 52.264 605.521 53.32C603.761 54.344 602.353 55.736 601.297 57.496C600.241 59.256 599.713 61.208 599.713 63.352V91H589.729ZM643.474 92.248C639.058 92.248 635.026 91.112 631.378 88.84C627.762 86.568 624.866 83.528 622.69 79.72C620.546 75.88 619.474 71.64 619.474 67C619.474 63.48 620.098 60.2 621.346 57.16C622.594 54.088 624.306 51.4 626.482 49.096C628.69 46.76 631.25 44.936 634.162 43.624C637.074 42.312 640.178 41.656 643.474 41.656C647.154 41.656 650.53 42.424 653.602 43.96C656.674 45.464 659.298 47.56 661.474 50.248C663.65 52.904 665.25 55.976 666.274 59.464C667.298 62.92 667.602 66.6 667.186 70.504H630.178C630.594 72.712 631.394 74.712 632.578 76.504C633.794 78.264 635.33 79.656 637.186 80.68C639.074 81.704 641.17 82.232 643.474 82.264C645.906 82.264 648.114 81.656 650.098 80.44C652.114 79.224 653.762 77.544 655.042 75.4L665.17 77.752C663.25 82.008 660.354 85.496 656.482 88.216C652.61 90.904 648.274 92.248 643.474 92.248ZM629.842 62.872H657.106C656.786 60.568 655.97 58.488 654.658 56.632C653.378 54.744 651.762 53.256 649.81 52.168C647.89 51.048 645.778 50.488 643.474 50.488C641.202 50.488 639.09 51.032 637.138 52.12C635.218 53.208 633.618 54.696 632.338 56.584C631.09 58.44 630.258 60.536 629.842 62.872Z" fill="white"/>
<path d="M43.2 101.944V102.944H44.2V101.944H43.2ZM27.84 99.16L28.2028 98.2281L28.1994 98.2268L27.84 99.16ZM15.312 91.384L15.9927 90.6514L15.9925 90.6512L15.312 91.384ZM6.864 79.576L5.94884 79.9792L5.95232 79.9869L6.864 79.576ZM6.864 49.288L5.94516 48.8933L5.94295 48.8986L6.864 49.288ZM15.312 36.76L16.0191 37.4671L16.0191 37.4671L15.312 36.76ZM27.888 28.312L28.2774 29.2331L28.2827 29.2308L27.888 28.312ZM58.512 28.312L58.9067 27.3932L58.9067 27.3932L58.512 28.312ZM71.04 36.808L70.3298 37.512L70.3298 37.512L71.04 36.808ZM79.44 49.384L78.5189 49.7734L78.5221 49.7809L79.44 49.384ZM81.408 73.192L80.4398 72.9418L80.4379 72.9495L81.408 73.192ZM78.24 80.872L77.3867 80.3505L77.3846 80.354L78.24 80.872ZM73.152 86.344L73.7067 87.1761L73.7157 87.17L73.152 86.344ZM60.432 87.112L60.0216 88.0239L60.0307 88.028L60.0399 88.0319L60.432 87.112ZM55.488 83.656L54.7574 84.3389L54.765 84.3469L55.488 83.656ZM52.992 78.808L53.9789 78.6465L53.6293 76.51L52.2292 78.1613L52.992 78.808ZM48.288 82.36L48.71 83.2666L48.7167 83.2634L48.288 82.36ZM32.352 81.112L31.8375 81.9696L31.8487 81.9761L32.352 81.112ZM25.44 74.2L24.5758 74.7033L24.5825 74.7145L25.44 74.2ZM25.44 54.952L24.5825 54.4375L24.5783 54.4446L25.44 54.952ZM32.352 48.088L32.8594 48.9497L32.8623 48.948L32.352 48.088ZM48.48 46.696L48.1258 47.6312L48.1304 47.6329L48.48 46.696ZM53.472 50.008L52.7066 50.6516L54.472 52.7509V50.008H53.472ZM53.472 46.456L53.6634 45.4745L52.472 45.2422V46.456H53.472ZM61.104 47.944H62.104V47.1201L61.2954 46.9625L61.104 47.944ZM62.4 77.176L61.7064 77.8963L61.7199 77.9094L61.734 77.9219L62.4 77.176ZM69.552 76.12L68.7199 75.5653L68.7172 75.5694L69.552 76.12ZM71.808 70.6L72.7839 70.8185L72.7845 70.8154L71.808 70.6ZM63.84 43.768L63.1329 44.4751L63.1371 44.4793L63.84 43.768ZM54.48 37.48L54.0871 38.3996L54.0901 38.4009L54.48 37.48ZM31.824 37.528L32.2139 38.4489L32.2209 38.4459L31.824 37.528ZM22.416 43.816L21.7131 43.1047L21.7089 43.1089L22.416 43.816ZM16.08 53.176L15.1621 52.7791L15.1604 52.7831L16.08 53.176ZM16.08 75.688L15.1673 76.0966L15.1673 76.0966L16.08 75.688ZM22.368 84.376L21.697 85.1176L21.7064 85.1258L22.368 84.376ZM31.728 89.992L31.3713 90.9262L31.3741 90.9273L31.728 89.992ZM43.2 92.008H44.2V91.008H43.2V92.008ZM48.336 74.392L48.9095 75.2112L48.9095 75.2112L48.336 74.392ZM52.08 70.024L52.9745 70.4712L52.9776 70.4649L52.08 70.024ZM52.128 58.744L51.2369 59.1979L51.2405 59.2048L52.128 58.744ZM48.432 54.664L47.8811 55.4987L47.8929 55.5063L48.432 54.664ZM36.912 54.616L36.4091 53.7516L36.4022 53.7557L36.912 54.616ZM32.736 58.792L31.8785 58.2775L31.8757 58.2822L32.736 58.792ZM32.784 70.408L31.9265 70.9225L31.9307 70.9294L32.784 70.408ZM36.96 74.536L36.4502 75.3963L36.4571 75.4003L36.96 74.536ZM43.2 101.944V100.944C37.8434 100.944 32.8473 100.036 28.2028 98.2281L27.84 99.16L27.4773 100.092C32.3687 101.996 37.6126 102.944 43.2 102.944V101.944ZM27.84 99.16L28.1994 98.2268C23.5789 96.4473 19.5127 93.9222 15.9927 90.6514L15.312 91.384L14.6313 92.1166C18.3433 95.5658 22.6291 98.2247 27.4806 100.093L27.84 99.16ZM15.312 91.384L15.9925 90.6512C12.5081 87.4158 9.76993 83.5898 7.77568 79.1651L6.864 79.576L5.95232 79.9869C8.05408 84.6502 10.9479 88.6962 14.6315 92.1168L15.312 91.384ZM6.864 79.576L7.77913 79.1728C5.82386 74.7347 4.84 69.8655 4.84 64.552H3.84H2.84C2.84 70.1185 3.87214 75.2653 5.94887 79.9792L6.864 79.576ZM3.84 64.552H4.84C4.84 59.2717 5.82348 54.3167 7.78505 49.6774L6.864 49.288L5.94295 48.8986C3.87252 53.7953 2.84 59.0163 2.84 64.552H3.84ZM6.864 49.288L7.78283 49.6827C9.78194 45.0285 12.527 40.9592 16.0191 37.4671L15.312 36.76L14.6049 36.0529C10.929 39.7288 8.04206 44.0115 5.94517 48.8933L6.864 49.288ZM15.312 36.76L16.0191 37.4671C19.5428 33.9434 23.6266 31.1995 28.2774 29.233L27.888 28.312L27.4986 27.3909C22.6134 29.4565 18.3132 32.3446 14.6049 36.0529L15.312 36.76ZM27.888 28.312L28.2827 29.2308C32.92 27.239 37.889 26.24 43.2 26.24V25.24V24.24C37.631 24.24 32.392 25.289 27.4933 27.3932L27.888 28.312ZM43.2 25.24V26.24C48.511 26.24 53.48 27.239 58.1173 29.2308L58.512 28.312L58.9067 27.3932C54.008 25.289 48.769 24.24 43.2 24.24V25.24ZM58.512 28.312L58.1173 29.2308C62.7696 31.2291 66.8379 33.989 70.3298 37.512L71.04 36.808L71.7502 36.104C68.0741 32.395 63.7904 29.4909 58.9067 27.3932L58.512 28.312ZM71.04 36.808L70.3298 37.512C73.8226 41.036 76.5517 45.1207 78.519 49.7734L79.44 49.384L80.3611 48.9946C78.2963 44.1113 75.4254 39.812 71.7502 36.104L71.04 36.808ZM79.44 49.384L78.5221 49.7809C80.5137 54.3863 81.512 59.3067 81.512 64.552H82.512H83.512C83.512 59.0453 82.4623 53.8536 80.3579 48.9871L79.44 49.384ZM82.512 64.552H81.512C81.512 67.3787 81.1549 70.1747 80.4398 72.9418L81.408 73.192L82.3762 73.4422C83.1331 70.5133 83.512 67.5493 83.512 64.552H82.512ZM81.408 73.192L80.4379 72.9495C79.7566 75.6745 78.738 78.1393 77.3867 80.3506L78.24 80.872L79.0933 81.3934C80.558 78.9967 81.6514 76.3415 82.3781 73.4345L81.408 73.192ZM78.24 80.872L77.3846 80.354C76.0761 82.5146 74.476 84.2296 72.5883 85.518L73.152 86.344L73.7157 87.17C75.86 85.7064 77.6519 83.7734 79.0954 81.39L78.24 80.872ZM73.152 86.344L72.5973 85.5119C70.7572 86.7387 68.649 87.36 66.24 87.36V88.36V89.36C69.015 89.36 71.5148 88.6373 73.7067 87.1761L73.152 86.344ZM66.24 88.36V87.36C64.4683 87.36 62.6652 86.9768 60.8241 86.1921L60.432 87.112L60.0399 88.0319C62.1028 88.9112 64.1717 89.36 66.24 89.36V88.36ZM60.432 87.112L60.8424 86.2001C59.033 85.3859 57.493 84.3068 56.211 82.9651L55.488 83.656L54.765 84.3469C56.235 85.8852 57.991 87.1101 60.0216 88.0239L60.432 87.112ZM55.488 83.656L56.2185 82.9731C54.9596 81.6263 54.2309 80.1865 53.9789 78.6465L52.992 78.808L52.0051 78.9695C52.3291 80.9495 53.2645 82.7417 54.7575 84.3389L55.488 83.656ZM52.992 78.808L52.2292 78.1613C51.0805 79.5162 49.6297 80.6164 47.8593 81.4566L48.288 82.36L48.7167 83.2634C50.7223 82.3116 52.4075 81.0438 53.7548 79.4547L52.992 78.808ZM48.288 82.36L47.866 81.4534C46.1613 82.247 44.197 82.656 41.952 82.656V83.656V84.656C44.4431 84.656 46.7027 84.201 48.71 83.2666L48.288 82.36ZM41.952 83.656V82.656C38.6343 82.656 35.609 81.8517 32.8553 80.2479L32.352 81.112L31.8487 81.9761C34.919 83.7643 38.2937 84.656 41.952 84.656V83.656ZM32.352 81.112L32.8665 80.2545C30.1272 78.611 27.941 76.4248 26.2975 73.6855L25.44 74.2L24.5825 74.7145C26.395 77.7352 28.8168 80.157 31.8375 81.9695L32.352 81.112ZM25.44 74.2L26.3041 73.6967C24.7012 70.9445 23.896 67.9034 23.896 64.552H22.896H21.896C21.896 68.2406 22.7868 71.6315 24.5759 74.7033L25.44 74.2ZM22.896 64.552H23.896C23.896 61.2006 24.7011 58.1774 26.3017 55.4594L25.44 54.952L24.5783 54.4446C22.7869 57.4866 21.896 60.8634 21.896 64.552H22.896ZM25.44 54.952L26.2975 55.4665C27.9401 52.7289 30.124 50.5606 32.8594 48.9497L32.352 48.088L31.8446 47.2263C28.82 49.0074 26.3959 51.4151 24.5825 54.4375L25.44 54.952ZM32.352 48.088L32.8623 48.948C35.6151 47.3145 38.6379 46.496 41.952 46.496V45.496V44.496C38.2901 44.496 34.9129 45.4055 31.8417 47.228L32.352 48.088ZM41.952 45.496V46.496C44.07 46.496 46.126 46.8737 48.1258 47.6312L48.48 46.696L48.8342 45.7608C46.61 44.9183 44.314 44.496 41.952 44.496V45.496ZM48.48 46.696L48.1304 47.6329C50.1518 48.3871 51.6576 49.4041 52.7066 50.6516L53.472 50.008L54.2374 49.3644C52.9184 47.7959 51.0962 46.6049 48.8296 45.7591L48.48 46.696ZM53.472 50.008H54.472V46.456H53.472H52.472V50.008H53.472ZM53.472 46.456L53.2806 47.4375L60.9126 48.9255L61.104 47.944L61.2954 46.9625L53.6634 45.4745L53.472 46.456ZM61.104 47.944H60.104V73.96H61.104H62.104V47.944H61.104ZM61.104 73.96H60.104C60.104 75.5155 60.6272 76.8571 61.7064 77.8963L62.4 77.176L63.0936 76.4557C62.4448 75.8309 62.104 75.0285 62.104 73.96H61.104ZM62.4 77.176L61.734 77.9219C62.8209 78.8924 64.1328 79.376 65.616 79.376V78.376V77.376C64.6032 77.376 63.7711 77.0596 63.066 76.4301L62.4 77.176ZM65.616 78.376V79.376C67.6234 79.376 69.2324 78.4207 70.3868 76.6706L69.552 76.12L68.7172 75.5694C67.8876 76.8273 66.8726 77.376 65.616 77.376V78.376ZM69.552 76.12L70.3841 76.6747C71.4879 75.019 72.282 73.0601 72.7838 70.8185L71.808 70.6L70.8322 70.3815C70.374 72.4279 69.6641 74.149 68.72 75.5653L69.552 76.12ZM71.808 70.6L72.7845 70.8154C73.2771 68.5823 73.528 66.4932 73.528 64.552H72.528H71.528C71.528 66.3228 71.2989 68.2657 70.8315 70.3846L71.808 70.6ZM72.528 64.552H73.528C73.528 60.3585 72.7348 56.4146 71.1419 52.7311L70.224 53.128L69.3061 53.5249C70.7853 56.9453 71.528 60.6175 71.528 64.552H72.528ZM70.224 53.128L71.1419 52.7311C69.5556 49.0629 67.3552 45.8359 64.5429 43.0567L63.84 43.768L63.1371 44.4793C65.7649 47.0761 67.8204 50.0891 69.3061 53.5249L70.224 53.128ZM63.84 43.768L64.5471 43.0609C61.7668 40.2805 58.5386 38.1126 54.8699 36.5591L54.48 37.48L54.0901 38.4009C57.5254 39.8554 60.5373 41.8795 63.1329 44.4751L63.84 43.768ZM54.48 37.48L54.8729 36.5604C51.2231 35.001 47.3289 34.224 43.2 34.224V35.224V36.224C47.0711 36.224 50.6969 36.951 54.0871 38.3996L54.48 37.48ZM43.2 35.224V34.224C39.0373 34.224 35.1097 35.0177 31.4271 36.6101L31.824 37.528L32.2209 38.4459C35.6424 36.9663 39.2987 36.224 43.2 36.224V35.224ZM31.824 37.528L31.4341 36.6071C27.7665 38.1601 24.524 40.3269 21.7131 43.1047L22.416 43.816L23.1189 44.5273C25.748 41.9291 28.7775 39.9039 32.2139 38.4488L31.824 37.528ZM22.416 43.816L21.7089 43.1089C18.9301 45.8877 16.7473 49.1135 15.1621 52.7791L16.08 53.176L16.9979 53.5729C18.4847 50.1345 20.5259 47.1203 23.1231 44.5231L22.416 43.816ZM16.08 53.176L15.1604 52.7831C13.6001 56.4348 12.824 60.3614 12.824 64.552H13.824H14.824C14.824 60.6146 15.5519 56.9572 16.9996 53.5689L16.08 53.176ZM13.824 64.552H12.824C12.824 68.7421 13.6 72.5952 15.1673 76.0966L16.08 75.688L16.9927 75.2794C15.552 72.0608 14.824 68.4899 14.824 64.552H13.824ZM16.08 75.688L15.1673 76.0966C16.727 79.5811 18.9046 82.591 21.6971 85.1175L22.368 84.376L23.0389 83.6345C20.4554 81.297 18.441 78.5149 16.9927 75.2794L16.08 75.688ZM22.368 84.376L21.7064 85.1258C24.5196 87.6081 27.7438 89.5412 31.3713 90.9262L31.728 89.992L32.0847 89.0578C28.6722 87.7548 25.6564 85.9439 23.0296 83.6262L22.368 84.376ZM31.728 89.992L31.3741 90.9273C35.0478 92.3173 38.9926 93.008 43.2 93.008V92.008V91.008C39.2154 91.008 35.5122 90.3547 32.0819 89.0567L31.728 89.992ZM43.2 92.008H42.2V101.944H43.2H44.2V92.008H43.2ZM42.72 76.072V77.072C45.0482 77.072 47.1249 76.4604 48.9095 75.2112L48.336 74.392L47.7625 73.5728C46.3471 74.5636 44.6798 75.072 42.72 75.072V76.072ZM48.336 74.392L48.9095 75.2112C50.6493 73.9933 52.006 72.408 52.9744 70.4712L52.08 70.024L51.1856 69.5768C50.362 71.224 49.2227 72.5507 47.7625 73.5728L48.336 74.392ZM52.08 70.024L52.9776 70.4649C53.9404 68.5048 54.424 66.4341 54.424 64.264H53.424H52.424C52.424 66.1259 52.0116 67.8952 51.1824 69.5831L52.08 70.024ZM53.424 64.264H54.424C54.424 62.1 53.9589 60.1001 53.0155 58.2832L52.128 58.744L51.2405 59.2048C52.0251 60.7159 52.424 62.396 52.424 64.264H53.424ZM52.128 58.744L53.019 58.2901C52.0745 56.436 50.7211 54.9418 48.9711 53.8217L48.432 54.664L47.8929 55.5063C49.3429 56.4342 50.4535 57.66 51.237 59.1979L52.128 58.744ZM48.432 54.664L48.9828 53.8294C47.1957 52.6498 45.0933 52.08 42.72 52.08V53.08V54.08C44.7627 54.08 46.4683 54.5662 47.8812 55.4986L48.432 54.664ZM42.72 53.08V52.08C40.4382 52.08 38.3276 52.6354 36.4091 53.7517L36.912 54.616L37.4149 55.4803C39.0164 54.5486 40.7778 54.08 42.72 54.08V53.08ZM36.912 54.616L36.4022 53.7557C34.5282 54.8662 33.018 56.3784 31.8785 58.2775L32.736 58.792L33.5935 59.3065C34.566 57.6856 35.8398 56.4138 37.4218 55.4763L36.912 54.616ZM32.736 58.792L31.8757 58.2822C30.7555 60.1726 30.2 62.2702 30.2 64.552H31.2H32.2C32.2 62.6098 32.6685 60.8674 33.5963 59.3018L32.736 58.792ZM31.2 64.552H30.2C30.2 66.8688 30.773 69 31.9265 70.9225L32.784 70.408L33.6415 69.8935C32.683 68.296 32.2 66.5232 32.2 64.552H31.2ZM32.784 70.408L31.9307 70.9294C33.0711 72.7955 34.5806 74.2884 36.4502 75.3963L36.96 74.536L37.4698 73.6757C35.8834 72.7356 34.6089 71.4765 33.6373 69.8865L32.784 70.408ZM36.96 74.536L36.4571 75.4003C38.3732 76.5152 40.4673 77.072 42.72 77.072V76.072V75.072C40.8127 75.072 39.0668 74.6048 37.4629 73.6717L36.96 74.536ZM129.784 45.064L129.271 45.9228L129.275 45.9246L129.784 45.064ZM138.952 54.232L138.091 54.7412L138.093 54.7444L138.952 54.232ZM140.392 76.792L141.31 77.1883L141.311 77.1848L140.392 76.792ZM134.92 84.856L135.627 85.5631L135.627 85.5631L134.92 84.856ZM126.856 90.28L126.463 89.3604L126.46 89.3619L126.856 90.28ZM108.232 89.944L107.7 90.7908L107.706 90.7947L107.712 90.7986L108.232 89.944ZM102.088 83.944L102.923 83.3944L101.088 80.6046V83.944H102.088ZM102.088 91V92H103.088V91H102.088ZM92.1038 91H91.1038V92H92.1038V91ZM92.1038 19V18H91.1038V19H92.1038ZM102.088 19H103.088V18H102.088V19ZM102.088 49.96H101.088V53.3362L102.926 50.5046L102.088 49.96ZM108.232 43.96L107.712 43.1054L107.708 43.1083L108.232 43.96ZM124.6 80.44L125.121 81.2933L125.121 81.2933L124.6 80.44ZM130.072 74.776L129.207 74.2736L129.202 74.2824L130.072 74.776ZM130.072 59.032L130.936 58.5296L130.936 58.5296L130.072 59.032ZM124.552 53.416L124.03 54.2693L124.039 54.2745L124.552 53.416ZM109.624 53.416L109.069 52.5839L109.069 52.5839L109.624 53.416ZM109.624 80.488L109.069 81.3201L109.078 81.3259L109.624 80.488ZM117.064 41.656V42.656C121.565 42.656 125.627 43.7482 129.271 45.9228L129.784 45.064L130.296 44.2052C126.325 41.8358 121.906 40.656 117.064 40.656V41.656ZM129.784 45.064L129.275 45.9246C132.97 48.1109 135.905 51.0461 138.091 54.7412L138.952 54.232L139.812 53.7228C137.455 49.7379 134.278 46.5611 130.293 44.2034L129.784 45.064ZM138.952 54.232L138.093 54.7444C140.268 58.389 141.36 62.4503 141.36 66.952H142.36H143.36C143.36 62.1097 142.18 57.691 139.811 53.7196L138.952 54.232ZM142.36 66.952H141.36C141.36 70.3111 140.729 73.4569 139.472 76.3992L140.392 76.792L141.311 77.1848C142.679 73.9831 143.36 70.5689 143.36 66.952H142.36ZM140.392 76.792L139.474 76.3957C138.212 79.32 136.459 81.9025 134.213 84.1489L134.92 84.856L135.627 85.5631C138.052 83.1375 139.948 80.344 141.31 77.1883L140.392 76.792ZM134.92 84.856L134.213 84.1489C132.001 86.3603 129.421 88.0972 126.463 89.3604L126.856 90.28L127.249 91.1996C130.435 89.8388 133.23 87.9597 135.627 85.5631L134.92 84.856ZM126.856 90.28L126.46 89.3619C123.551 90.617 120.423 91.248 117.064 91.248V92.248V93.248C120.681 93.248 124.08 92.567 127.252 91.1981L126.856 90.28ZM117.064 92.248V91.248C113.861 91.248 111.102 90.5179 108.751 89.0894L108.232 89.944L107.712 90.7986C110.417 92.4421 113.546 93.248 117.064 93.248V92.248ZM108.232 89.944L108.764 89.0972C106.387 87.6044 104.443 85.7052 102.923 83.3944L102.088 83.944L101.252 84.4936C102.932 87.0468 105.084 89.1476 107.7 90.7908L108.232 89.944ZM102.088 83.944H101.088V91H102.088H103.088V83.944H102.088ZM102.088 91V90H92.1038V91V92H102.088V91ZM92.1038 91H93.1038V19H92.1038H91.1038V91H92.1038ZM92.1038 19V20H102.088V19V18H92.1038V19ZM102.088 19H101.088V49.96H102.088H103.088V19H102.088ZM102.088 49.96L102.926 50.5046C104.446 48.1647 106.387 46.2697 108.756 44.8117L108.232 43.96L107.708 43.1083C105.085 44.7223 102.93 46.8273 101.249 49.4154L102.088 49.96ZM108.232 43.96L108.751 44.8146C111.102 43.3861 113.861 42.656 117.064 42.656V41.656V40.656C113.546 40.656 110.417 41.4619 107.712 43.1054L108.232 43.96ZM116.968 82.552V83.552C119.93 83.552 122.655 82.8003 125.121 81.2933L124.6 80.44L124.078 79.5867C121.936 80.8957 119.574 81.552 116.968 81.552V82.552ZM124.6 80.44L125.121 81.2933C127.571 79.7961 129.514 77.7838 130.941 75.2696L130.072 74.776L129.202 74.2824C127.941 76.5042 126.236 78.2679 124.078 79.5867L124.6 80.44ZM130.072 74.776L130.936 75.2784C132.405 72.7516 133.136 69.9691 133.136 66.952H132.136H131.136C131.136 69.6309 130.491 72.0644 129.207 74.2736L130.072 74.776ZM132.136 66.952H133.136C133.136 63.8751 132.407 61.0599 130.936 58.5296L130.072 59.032L129.207 59.5344C130.489 61.7401 131.136 64.2049 131.136 66.952H132.136ZM130.072 59.032L130.936 58.5296C129.477 56.0181 127.517 54.0223 125.064 52.5575L124.552 53.416L124.039 54.2745C126.194 55.5617 127.914 57.3099 129.207 59.5344L130.072 59.032ZM124.552 53.416L125.073 52.5627C122.609 51.0568 119.9 50.304 116.968 50.304V51.304V52.304C119.539 52.304 121.886 52.9592 124.03 54.2693L124.552 53.416ZM116.968 51.304V50.304C114.006 50.304 111.361 51.0559 109.069 52.5839L109.624 53.416L110.178 54.248C112.11 52.9601 114.361 52.304 116.968 52.304V51.304ZM109.624 53.416L109.069 52.5839C106.806 54.0927 105.044 56.1161 103.785 58.6328L104.68 59.08L105.574 59.5272C106.684 57.3079 108.218 55.5553 110.178 54.248L109.624 53.416ZM104.68 59.08L103.785 58.6328C102.526 61.1516 101.904 63.9306 101.904 66.952H102.904H103.904C103.904 64.2134 104.466 61.7444 105.574 59.5272L104.68 59.08ZM102.904 66.952H101.904C101.904 69.9734 102.526 72.7524 103.785 75.2712L104.68 74.824L105.574 74.3768C104.466 72.1596 103.904 69.6906 103.904 66.952H102.904ZM104.68 74.824L103.785 75.2712C105.044 77.7879 106.806 79.8113 109.069 81.32L109.624 80.488L110.178 79.6559C108.218 78.3487 106.684 76.5961 105.574 74.3768L104.68 74.824ZM109.624 80.488L109.078 81.3259C111.369 82.8186 114.011 83.552 116.968 83.552V82.552V81.552C114.357 81.552 112.102 80.9094 110.17 79.6501L109.624 80.488ZM159.065 88.84L158.533 89.6867L158.537 89.6888L159.065 88.84ZM150.377 79.72L149.504 80.2075L149.509 80.2161L150.377 79.72ZM149.033 57.16L149.958 57.5398L149.96 57.5364L149.033 57.16ZM154.169 49.096L153.443 48.4091L153.442 48.4094L154.169 49.096ZM161.849 43.624L161.438 42.7123L161.438 42.7123L161.849 43.624ZM181.289 43.96L180.842 44.8545L180.85 44.8581L181.289 43.96ZM189.161 50.248L188.384 50.8772L188.388 50.8817L189.161 50.248ZM193.961 59.464L193.002 59.7457L193.002 59.7481L193.961 59.464ZM194.873 70.504V71.504H195.772L195.868 70.61L194.873 70.504ZM157.865 70.504V69.504H156.659L156.883 70.6891L157.865 70.504ZM160.265 76.504L159.431 77.0553L159.437 77.0639L159.443 77.0724L160.265 76.504ZM164.873 80.68L164.39 81.5556L164.396 81.559L164.873 80.68ZM171.161 82.264L171.147 83.264H171.161V82.264ZM177.785 80.44L177.269 79.5837L177.263 79.5874L177.785 80.44ZM182.729 75.4L182.955 74.4259L182.245 74.2609L181.871 74.8874L182.729 75.4ZM192.857 77.752L193.769 78.1632L194.269 77.0533L193.083 76.7779L192.857 77.752ZM184.169 88.216L184.74 89.0375L184.744 89.0343L184.169 88.216ZM157.529 62.872L156.545 62.6967L156.335 63.872H157.529V62.872ZM184.793 62.872V63.872H185.942L185.784 62.7344L184.793 62.872ZM182.345 56.632L181.518 57.1932L181.523 57.2013L181.529 57.2092L182.345 56.632ZM177.497 52.168L176.993 53.0318L177.002 53.0367L177.01 53.0415L177.497 52.168ZM164.825 52.12L164.338 51.2465L164.332 51.25L164.825 52.12ZM160.025 56.584L159.198 56.0228L159.195 56.026L160.025 56.584ZM171.161 92.248V91.248C166.927 91.248 163.079 90.1615 159.594 87.9912L159.065 88.84L158.537 89.6888C162.348 92.0625 166.564 93.248 171.161 93.248V92.248ZM159.065 88.84L159.597 87.9933C156.124 85.8111 153.342 82.8931 151.245 79.2239L150.377 79.72L149.509 80.2161C151.764 84.1629 154.774 87.3249 158.533 89.6867L159.065 88.84ZM150.377 79.72L151.25 79.2325C149.194 75.5498 148.161 71.4791 148.161 67H147.161H146.161C146.161 71.8009 147.272 76.2102 149.504 80.2075L150.377 79.72ZM147.161 67H148.161C148.161 63.6009 148.763 60.4509 149.958 57.5398L149.033 57.16L148.108 56.7802C146.807 59.9491 146.161 63.3591 146.161 67H147.161ZM149.033 57.16L149.96 57.5364C151.163 54.5739 152.809 51.9923 154.896 49.7826L154.169 49.096L153.442 48.4094C151.177 50.8077 149.399 53.6021 148.107 56.7836L149.033 57.16ZM154.169 49.096L154.896 49.7829C157.015 47.5411 159.468 45.7938 162.26 44.5357L161.849 43.624L161.438 42.7123C158.407 44.0782 155.74 45.9789 153.443 48.4091L154.169 49.096ZM161.849 43.624L162.26 44.5357C165.039 43.2838 168.002 42.656 171.161 42.656V41.656V40.656C167.728 40.656 164.484 41.3402 161.438 42.7123L161.849 43.624ZM171.161 41.656V42.656C174.697 42.656 177.919 43.3928 180.842 44.8544L181.289 43.96L181.736 43.0656C178.516 41.4552 174.985 40.656 171.161 40.656V41.656ZM181.289 43.96L180.85 44.8581C183.789 46.2974 186.299 48.301 188.384 50.8772L189.161 50.248L189.938 49.6188C187.672 46.819 184.933 44.6306 181.729 43.0619L181.289 43.96ZM189.161 50.248L188.388 50.8817C190.474 53.428 192.013 56.3786 193.002 59.7457L193.961 59.464L194.921 59.1823C193.861 55.5734 192.201 52.38 189.935 49.6143L189.161 50.248ZM193.961 59.464L193.002 59.7481C193.986 63.0668 194.282 66.6134 193.879 70.398L194.873 70.504L195.868 70.61C196.296 66.5866 195.985 62.7732 194.92 59.1799L193.961 59.464ZM194.873 70.504V69.504H157.865V70.504V71.504H194.873V70.504ZM157.865 70.504L156.883 70.6891C157.322 73.0217 158.17 75.1472 159.431 77.0553L160.265 76.504L161.1 75.9527C159.992 74.2768 159.24 72.4023 158.848 70.3189L157.865 70.504ZM160.265 76.504L159.443 77.0724C160.746 78.9585 162.397 80.4561 164.39 81.5556L164.873 80.68L165.356 79.8044C163.637 78.8559 162.217 77.5695 161.088 75.9356L160.265 76.504ZM164.873 80.68L164.396 81.559C166.437 82.6657 168.694 83.2298 171.147 83.2639L171.161 82.264L171.175 81.2641C169.021 81.2342 167.086 80.7423 165.35 79.801L164.873 80.68ZM171.161 82.264V83.264C173.769 83.264 176.159 82.6094 178.308 81.2926L177.785 80.44L177.263 79.5874C175.443 80.7026 173.418 81.264 171.161 81.264V82.264ZM177.785 80.44L178.302 81.2963C180.467 79.9904 182.229 78.1887 183.588 75.9126L182.729 75.4L181.871 74.8874C180.669 76.8993 179.136 78.4576 177.269 79.5837L177.785 80.44ZM182.729 75.4L182.503 76.3741L192.631 78.7261L192.857 77.752L193.083 76.7779L182.955 74.4259L182.729 75.4ZM192.857 77.752L191.946 77.3408C190.1 81.4311 187.322 84.7793 183.594 87.3977L184.169 88.216L184.744 89.0343C188.761 86.2127 191.774 82.5849 193.769 78.1632L192.857 77.752ZM184.169 88.216L183.599 87.3945C179.898 89.964 175.761 91.248 171.161 91.248V92.248V93.248C176.161 93.248 180.697 91.844 184.74 89.0375L184.169 88.216ZM157.529 62.872V63.872H184.793V62.872V61.872H157.529V62.872ZM184.793 62.872L185.784 62.7344C185.442 60.2759 184.568 58.0444 183.162 56.0548L182.345 56.632L181.529 57.2092C182.746 58.9316 183.504 60.8601 183.803 63.0096L184.793 62.872ZM182.345 56.632L183.173 56.0708C181.807 54.0563 180.075 52.4602 177.984 51.2945L177.497 52.168L177.01 53.0415C178.823 54.0518 180.323 55.4317 181.518 57.1932L182.345 56.632ZM177.497 52.168L178.001 51.3042C175.922 50.0917 173.636 49.488 171.161 49.488V50.488V51.488C173.295 51.488 175.232 52.0043 176.993 53.0318L177.497 52.168ZM171.161 50.488V49.488C168.722 49.488 166.442 50.0741 164.338 51.2465L164.825 52.12L165.312 52.9935C167.113 51.9899 169.057 51.488 171.161 51.488V50.488ZM164.825 52.12L164.332 51.25C162.274 52.4164 160.561 54.0119 159.198 56.0228L160.025 56.584L160.853 57.1452C162.05 55.3801 163.537 53.9996 165.318 52.99L164.825 52.12ZM160.025 56.584L159.195 56.026C157.865 58.0044 156.984 60.2322 156.545 62.6967L157.529 62.872L158.514 63.0473C158.907 60.8398 159.689 58.8756 160.855 57.142L160.025 56.584ZM240.121 19V18H239.121V19H240.121ZM250.105 19H251.105V18H250.105V19ZM250.105 91V92H251.105V91H250.105ZM240.121 91H239.121V92H240.121V91ZM240.121 83.944H241.121V80.4723L239.274 83.4121L240.121 83.944ZM233.977 89.992L234.488 90.8514L234.496 90.8466L233.977 89.992ZM215.305 90.28L215.701 89.3619L215.701 89.3619L215.305 90.28ZM207.241 84.856L206.529 85.5583L206.539 85.568L207.241 84.856ZM201.817 76.792L200.899 77.1883L200.899 77.1883L201.817 76.792ZM201.817 57.208L202.735 57.6043L202.736 57.6008L201.817 57.208ZM207.241 49.144L207.948 49.8511L207.948 49.8511L207.241 49.144ZM215.305 43.672L215.701 44.5901L215.701 44.5901L215.305 43.672ZM233.977 44.008L233.457 44.8627L233.465 44.8674L233.977 44.008ZM240.121 49.96L239.277 50.4969L241.121 53.3941V49.96H240.121ZM232.585 80.536L233.131 81.3739L233.139 81.368L232.585 80.536ZM237.481 74.872L236.586 74.4248L236.582 74.4345L237.481 74.872ZM232.537 53.464L231.976 54.2921L231.983 54.297L231.991 54.3019L232.537 53.464ZM217.561 53.464L217.039 52.6107L217.034 52.614L217.561 53.464ZM212.089 59.128L211.224 58.6256L211.219 58.6344L212.089 59.128ZM212.137 74.92L211.272 75.4224L211.276 75.4294L211.28 75.4362L212.137 74.92ZM217.657 80.536L217.13 81.386L217.137 81.3903L217.144 81.3945L217.657 80.536ZM240.121 19V20H250.105V19V18H240.121V19ZM250.105 19H249.105V91H250.105H251.105V19H250.105ZM250.105 91V90H240.121V91V92H250.105V91ZM240.121 91H241.121V83.944H240.121H239.121V91H240.121ZM240.121 83.944L239.274 83.4121C237.789 85.776 235.853 87.6817 233.457 89.1374L233.977 89.992L234.496 90.8466C237.156 89.2303 239.317 87.104 240.968 84.4759L240.121 83.944ZM233.977 89.992L233.465 89.1326C231.115 90.5312 228.337 91.248 225.097 91.248V92.248V93.248C228.641 93.248 231.783 92.4608 234.488 90.8514L233.977 89.992ZM225.097 92.248V91.248C221.738 91.248 218.609 90.617 215.701 89.3619L215.305 90.28L214.909 91.1981C218.08 92.567 221.48 93.248 225.097 93.248V92.248ZM215.305 90.28L215.701 89.3619C212.774 88.0986 210.19 86.3601 207.943 84.144L207.241 84.856L206.539 85.568C208.964 87.9599 211.756 89.8374 214.909 91.1981L215.305 90.28ZM207.241 84.856L207.953 84.1538C205.737 81.9069 203.998 79.3229 202.735 76.3957L201.817 76.792L200.899 77.1883C202.259 80.3411 204.137 83.1331 206.529 85.5582L207.241 84.856ZM201.817 76.792L202.735 76.3957C201.48 73.4875 200.849 70.3591 200.849 67H199.849H198.849C198.849 70.6169 199.53 74.0165 200.899 77.1883L201.817 76.792ZM199.849 67H200.849C200.849 63.6409 201.48 60.5125 202.735 57.6042L201.817 57.208L200.899 56.8117C199.53 59.9835 198.849 63.3831 198.849 67H199.849ZM201.817 57.208L202.736 57.6008C204 54.6431 205.736 52.0626 207.948 49.8511L207.241 49.144L206.534 48.4369C204.137 50.8334 202.258 53.6289 200.897 56.8152L201.817 57.208ZM207.241 49.144L207.948 49.8511C210.194 47.6047 212.777 45.8522 215.701 44.5901L215.305 43.672L214.909 42.7539C211.753 44.1158 208.959 46.0113 206.534 48.4369L207.241 49.144ZM215.305 43.672L215.701 44.5901C218.609 43.335 221.738 42.704 225.097 42.704V41.704V40.704C221.48 40.704 218.08 41.385 214.909 42.7539L215.305 43.672ZM225.097 41.704V42.704C228.333 42.704 231.108 43.435 233.457 44.8626L233.977 44.008L234.496 43.1534C231.79 41.509 228.644 40.704 225.097 40.704V41.704ZM233.977 44.008L233.465 44.8674C235.86 46.292 237.794 48.1659 239.277 50.4969L240.121 49.96L240.964 49.4231C239.312 46.8261 237.15 44.732 234.488 43.1486L233.977 44.008ZM240.121 49.96H241.121V19H240.121H239.121V49.96H240.121ZM225.193 82.6V83.6C228.179 83.6 230.838 82.8678 233.131 81.3739L232.585 80.536L232.039 79.6981C230.108 80.9562 227.838 81.6 225.193 81.6V82.6ZM232.585 80.536L233.139 81.368C235.405 79.8577 237.153 77.831 238.38 75.3095L237.481 74.872L236.582 74.4345C235.504 76.649 233.989 78.3983 232.03 79.7039L232.585 80.536ZM237.481 74.872L238.375 75.3192C239.635 72.8004 240.257 70.0214 240.257 67H239.257H238.257C238.257 69.7386 237.695 72.2076 236.586 74.4248L237.481 74.872ZM239.257 67H240.257C240.257 63.9485 239.635 61.1531 238.375 58.6328L237.481 59.08L236.586 59.5272C237.694 61.7429 238.257 64.2275 238.257 67H239.257ZM237.481 59.08L238.375 58.6328C237.116 56.1143 235.351 54.104 233.083 52.6261L232.537 53.464L231.991 54.3019C233.946 55.576 235.478 57.3097 236.586 59.5272L237.481 59.08ZM232.537 53.464L233.097 52.6359C230.832 51.1026 228.183 50.352 225.193 50.352V51.352V52.352C227.834 52.352 230.081 53.0094 231.976 54.2921L232.537 53.464ZM225.193 51.352V50.352C222.231 50.352 219.505 51.1037 217.039 52.6107L217.561 53.464L218.082 54.3173C220.224 53.0083 222.587 52.352 225.193 52.352V51.352ZM217.561 53.464L217.034 52.614C214.619 54.1106 212.68 56.1194 211.224 58.6256L212.089 59.128L212.953 59.6304C214.249 57.4006 215.958 55.6334 218.088 54.314L217.561 53.464ZM212.089 59.128L211.219 58.6344C209.785 61.1616 209.073 63.9573 209.073 67H210.073H211.073C211.073 64.2827 211.705 61.8304 212.958 59.6216L212.089 59.128ZM210.073 67H209.073C209.073 70.0769 209.802 72.8921 211.272 75.4224L212.137 74.92L213.001 74.4176C211.72 72.2119 211.073 69.7471 211.073 67H210.073ZM212.137 74.92L211.28 75.4362C212.768 77.9052 214.72 79.8927 217.13 81.386L217.657 80.536L218.184 79.686C216.049 78.3633 214.321 76.6068 212.993 74.4038L212.137 74.92ZM217.657 80.536L217.144 81.3945C219.605 82.8644 222.295 83.6 225.193 83.6V82.6V81.6C222.651 81.6 220.316 80.9596 218.169 79.6775L217.657 80.536ZM261.604 91H260.604V92H261.604V91ZM261.604 43V42H260.604V43H261.604ZM271.588 43H272.588V42H271.588V43ZM271.588 48.088H270.588V50.8365L272.354 48.7306L271.588 48.088ZM277.732 43.384L277.304 42.4803L277.304 42.4803L277.732 43.384ZM290.932 42.376L291.862 42.7436L292.272 41.7051L291.195 41.4112L290.932 42.376ZM286.948 52.456L286.589 53.3893L287.514 53.745L287.878 52.8236L286.948 52.456ZM277.396 53.32L277.899 54.1844L277.91 54.1775L277.396 53.32ZM273.172 57.496L274.029 58.0105L274.029 58.0105L273.172 57.496ZM271.588 91V92H272.588V91H271.588ZM261.604 91H262.604V43H261.604H260.604V91H261.604ZM261.604 43V44H271.588V43V42H261.604V43ZM271.588 43H270.588V48.088H271.588H272.588V43H271.588ZM271.588 48.088L272.354 48.7306C273.922 46.8613 275.853 45.3805 278.16 44.2877L277.732 43.384L277.304 42.4803C274.747 43.6914 272.582 45.3466 270.822 47.4454L271.588 48.088ZM277.732 43.384L278.16 44.2877C280.452 43.2021 282.929 42.656 285.604 42.656V41.656V40.656C282.647 40.656 279.876 41.2619 277.304 42.4803L277.732 43.384ZM285.604 41.656V42.656C287.305 42.656 288.993 42.8837 290.669 43.3408L290.932 42.376L291.195 41.4112C289.351 40.9083 287.486 40.656 285.604 40.656V41.656ZM290.932 42.376L290.002 42.0084L286.018 52.0884L286.948 52.456L287.878 52.8236L291.862 42.7436L290.932 42.376ZM286.948 52.456L287.307 51.5227C285.952 51.0018 284.583 50.736 283.204 50.736V51.736V52.736C284.32 52.736 285.447 52.9502 286.589 53.3893L286.948 52.456ZM283.204 51.736V50.736C280.916 50.736 278.801 51.3105 276.881 52.4625L277.396 53.32L277.91 54.1775C279.51 53.2175 281.267 52.736 283.204 52.736V51.736ZM277.396 53.32L276.893 52.4557C274.986 53.5652 273.456 55.0781 272.314 56.9815L273.172 57.496L274.029 58.0105C274.999 56.3939 276.286 55.1228 277.899 54.1843L277.396 53.32ZM273.172 57.496L272.314 56.9815C271.161 58.904 270.588 61.0352 270.588 63.352H271.588H272.588C272.588 61.3808 273.071 59.608 274.029 58.0105L273.172 57.496ZM271.588 63.352H270.588V91H271.588H272.588V63.352H271.588ZM271.588 91V90H261.604V91V92H271.588V91ZM303.253 88.84L302.721 89.6867L302.724 89.6888L303.253 88.84ZM294.565 79.72L293.692 80.2075L293.697 80.2161L294.565 79.72ZM293.221 57.16L294.146 57.5398L294.147 57.5364L293.221 57.16ZM298.357 49.096L297.63 48.4091L297.63 48.4094L298.357 49.096ZM306.037 43.624L305.626 42.7123L305.626 42.7123L306.037 43.624ZM327.397 45.064L326.865 45.9107L326.868 45.9128L327.397 45.064ZM336.085 54.232L335.212 54.7195L335.215 54.725L336.085 54.232ZM337.477 76.792L336.552 76.4122L336.552 76.4122L337.477 76.792ZM332.293 84.856L331.566 84.1691L331.566 84.1694L332.293 84.856ZM324.661 90.28L324.25 89.3683L324.246 89.37L324.661 90.28ZM322.501 80.152L323.055 80.984L323.055 80.984L322.501 80.152ZM327.493 74.584L326.611 74.1128L326.608 74.1172L327.493 74.584ZM327.445 59.32L326.563 59.7912L326.568 59.8005L327.445 59.32ZM322.405 53.752L321.85 54.5841L321.859 54.5899L322.405 53.752ZM308.197 53.752L307.648 52.9161L307.642 52.9199L308.197 53.752ZM303.157 59.368L302.275 58.8968L302.27 58.9063L303.157 59.368ZM303.253 74.728L304.127 74.2424L304.127 74.2424L303.253 74.728ZM308.341 80.248L307.795 81.0859L307.802 81.0906L307.81 81.0953L308.341 80.248ZM315.349 92.248V91.248C311.114 91.248 307.266 90.1615 303.781 87.9912L303.253 88.84L302.724 89.6888C306.535 92.0625 310.751 93.248 315.349 93.248V92.248ZM303.253 88.84L303.785 87.9933C300.312 85.8111 297.53 82.8931 295.433 79.2239L294.565 79.72L293.697 80.2161C295.952 84.1629 298.962 87.3249 302.721 89.6867L303.253 88.84ZM294.565 79.72L295.438 79.2325C293.382 75.5498 292.349 71.4791 292.349 67H291.349H290.349C290.349 71.8009 291.46 76.2102 293.692 80.2075L294.565 79.72ZM291.349 67H292.349C292.349 63.6009 292.951 60.4509 294.146 57.5398L293.221 57.16L292.296 56.7802C290.995 59.9491 290.349 63.3591 290.349 67H291.349ZM293.221 57.16L294.147 57.5364C295.351 54.5739 296.997 51.9923 299.084 49.7826L298.357 49.096L297.63 48.4094C295.365 50.8077 293.587 53.6021 292.294 56.7836L293.221 57.16ZM298.357 49.096L299.083 49.7829C301.202 47.5411 303.655 45.7938 306.448 44.5357L306.037 43.624L305.626 42.7123C302.594 44.0782 299.927 45.9789 297.63 48.4091L298.357 49.096ZM306.037 43.624L306.448 44.5357C309.226 43.2838 312.19 42.656 315.349 42.656V41.656V40.656C311.916 40.656 308.671 41.3402 305.626 42.7123L306.037 43.624ZM315.349 41.656V42.656C319.583 42.656 323.414 43.7424 326.865 45.9107L327.397 45.064L327.929 44.2173C324.148 41.8416 319.946 40.656 315.349 40.656V41.656ZM327.397 45.064L326.868 45.9128C330.369 48.0933 333.148 51.0235 335.212 54.7195L336.085 54.232L336.958 53.7445C334.733 49.7605 331.72 46.5787 327.925 44.2152L327.397 45.064ZM336.085 54.232L335.215 54.725C337.301 58.4058 338.349 62.4903 338.349 67H339.349H340.349C340.349 62.1657 339.221 57.7382 336.955 53.739L336.085 54.232ZM339.349 67H338.349C338.349 70.3658 337.747 73.5 336.552 76.4122L337.477 76.792L338.402 77.1718C339.702 74.004 340.349 70.6102 340.349 67H339.349ZM337.477 76.792L336.552 76.4122C335.349 79.3411 333.688 81.9244 331.566 84.1691L332.293 84.856L333.019 85.5429C335.314 83.1156 337.108 80.3229 338.402 77.1718L337.477 76.792ZM332.293 84.856L331.566 84.1694C329.48 86.3776 327.044 88.1095 324.25 89.3683L324.661 90.28L325.072 91.1917C328.102 89.8265 330.753 87.9424 333.02 85.5426L332.293 84.856ZM324.661 90.28L324.246 89.37C321.503 90.6196 318.541 91.248 315.349 91.248V92.248V93.248C318.812 93.248 322.058 92.5644 325.075 91.19L324.661 90.28ZM315.349 82.264V83.264C318.193 83.264 320.771 82.5068 323.055 80.984L322.501 80.152L321.946 79.3199C320.006 80.6132 317.817 81.264 315.349 81.264V82.264ZM322.501 80.152L323.055 80.984C325.31 79.4811 327.086 77.498 328.377 75.0508L327.493 74.584L326.608 74.1172C325.468 76.278 323.916 78.0069 321.946 79.3199L322.501 80.152ZM327.493 74.584L328.375 75.0552C329.702 72.5702 330.365 69.8798 330.365 67H329.365H328.365C328.365 69.5602 327.779 71.9258 326.611 74.1128L327.493 74.584ZM329.365 67H330.365C330.365 64.0559 329.686 61.3295 328.322 58.8395L327.445 59.32L326.568 59.8005C327.763 61.9825 328.365 64.3761 328.365 67H329.365ZM327.445 59.32L328.327 58.8488C327.004 56.372 325.211 54.3868 322.951 52.9141L322.405 53.752L321.859 54.5899C323.823 55.8692 325.39 57.596 326.563 59.7912L327.445 59.32ZM322.405 53.752L322.959 52.9199C320.68 51.4 318.134 50.64 315.349 50.64V51.64V52.64C317.748 52.64 319.906 53.288 321.85 54.584L322.405 53.752ZM315.349 51.64V50.64C312.534 50.64 309.959 51.3985 307.648 52.9161L308.197 53.752L308.746 54.5879C310.723 53.2895 312.915 52.64 315.349 52.64V51.64ZM308.197 53.752L307.642 52.9199C305.387 54.4234 303.597 56.4219 302.275 58.8968L303.157 59.368L304.039 59.8392C305.213 57.6421 306.783 55.8966 308.751 54.584L308.197 53.752ZM303.157 59.368L302.27 58.9063C300.976 61.3913 300.333 64.0947 300.333 67H301.333H302.333C302.333 64.4013 302.905 62.0167 304.044 59.8297L303.157 59.368ZM301.333 67H300.333C300.333 70.0039 301.009 72.7492 302.379 75.2136L303.253 74.728L304.127 74.2424C302.936 72.0988 302.333 69.6921 302.333 67H301.333ZM303.253 74.728L302.379 75.2136C303.734 77.6533 305.54 79.6168 307.795 81.0859L308.341 80.248L308.887 79.4101C306.917 78.1272 305.332 76.4107 304.127 74.2424L303.253 74.728ZM308.341 80.248L307.81 81.0953C310.113 82.539 312.633 83.264 315.349 83.264V82.264V81.264C313.009 81.264 310.857 80.645 308.872 79.4007L308.341 80.248ZM378.354 77.368L378.831 76.4892L378.117 76.1013L377.591 76.7213L378.354 77.368ZM387.282 82.216L388.095 82.798L388.754 81.8775L387.759 81.3372L387.282 82.216ZM378.978 89.512L378.501 88.6331L378.497 88.6351L378.978 89.512ZM356.034 88.84L355.502 89.6867L355.505 89.6888L356.034 88.84ZM347.346 79.72L346.473 80.2075L346.478 80.2161L347.346 79.72ZM346.002 57.16L346.927 57.5398L346.928 57.5364L346.002 57.16ZM351.138 49.096L350.411 48.4091L350.411 48.4094L351.138 49.096ZM358.818 43.624L358.407 42.7123L358.407 42.7123L358.818 43.624ZM378.978 44.392L378.497 45.2689L378.501 45.2708L378.978 44.392ZM387.282 51.736L387.759 52.6148L388.749 52.0772L388.098 51.158L387.282 51.736ZM378.354 56.584L377.588 57.2272L378.114 57.8525L378.831 57.4628L378.354 56.584ZM373.65 52.936L373.216 53.8368L373.222 53.8399L373.229 53.843L373.65 52.936ZM360.978 53.8L361.533 54.6321L361.536 54.6301L360.978 53.8ZM355.938 59.416L355.056 58.9448L355.054 58.9492L355.938 59.416ZM355.986 74.584L355.104 75.0552L355.107 75.0603L355.986 74.584ZM361.026 80.152L360.471 80.9841L360.477 80.9879L361.026 80.152ZM378.354 77.368L377.877 78.2468L386.805 83.0948L387.282 82.216L387.759 81.3372L378.831 76.4892L378.354 77.368ZM387.282 82.216L386.469 81.634C384.383 84.548 381.731 86.8797 378.501 88.6331L378.978 89.512L379.455 90.3909C382.945 88.4963 385.829 85.964 388.095 82.798L387.282 82.216ZM378.978 89.512L378.497 88.6351C375.321 90.3759 371.871 91.248 368.13 91.248V92.248V93.248C372.197 93.248 375.979 92.2961 379.459 90.3889L378.978 89.512ZM368.13 92.248V91.248C363.895 91.248 360.047 90.1615 356.563 87.9912L356.034 88.84L355.505 89.6888C359.317 92.0625 363.533 93.248 368.13 93.248V92.248ZM356.034 88.84L356.566 87.9933C353.093 85.8111 350.311 82.8931 348.214 79.2239L347.346 79.72L346.478 80.2161C348.733 84.1629 351.743 87.3249 355.502 89.6867L356.034 88.84ZM347.346 79.72L348.219 79.2325C346.163 75.5498 345.13 71.4791 345.13 67H344.13H343.13C343.13 71.8009 344.241 76.2102 346.473 80.2075L347.346 79.72ZM344.13 67H345.13C345.13 63.6009 345.732 60.4509 346.927 57.5398L346.002 57.16L345.077 56.7802C343.776 59.9491 343.13 63.3591 343.13 67H344.13ZM346.002 57.16L346.928 57.5364C348.132 54.5739 349.778 51.9923 351.865 49.7826L351.138 49.096L350.411 48.4094C348.146 50.8077 346.368 53.6021 345.076 56.7836L346.002 57.16ZM351.138 49.096L351.865 49.7829C353.984 47.5411 356.437 45.7938 359.229 44.5357L358.818 43.624L358.407 42.7123C355.375 44.0782 352.708 45.9789 350.411 48.4091L351.138 49.096ZM358.818 43.624L359.229 44.5357C362.007 43.2838 364.971 42.656 368.13 42.656V41.656V40.656C364.697 40.656 361.453 41.3402 358.407 42.7123L358.818 43.624ZM368.13 41.656V42.656C371.871 42.656 375.321 43.5281 378.497 45.2689L378.978 44.392L379.459 43.5151C375.979 41.6079 372.197 40.656 368.13 40.656V41.656ZM378.978 44.392L378.501 45.2708C381.729 47.023 384.38 49.3689 386.466 52.314L387.282 51.736L388.098 51.158C385.832 47.9591 382.947 45.409 379.455 43.5131L378.978 44.392ZM387.282 51.736L386.805 50.8572L377.877 55.7052L378.354 56.584L378.831 57.4628L387.759 52.6148L387.282 51.736ZM378.354 56.584L379.12 55.9408C377.687 54.2353 376.004 52.9262 374.071 52.029L373.65 52.936L373.229 53.843C374.88 54.6098 376.333 55.7327 377.588 57.2272L378.354 56.584ZM373.65 52.936L374.084 52.0352C372.164 51.1095 370.176 50.64 368.13 50.64V51.64V52.64C369.86 52.64 371.552 53.0345 373.216 53.8368L373.65 52.936ZM368.13 51.64V50.64C365.311 50.64 362.732 51.4173 360.42 52.9699L360.978 53.8L361.536 54.6301C363.512 53.3027 365.701 52.64 368.13 52.64V51.64ZM360.978 53.8L360.423 52.9679C358.168 54.4714 356.378 56.4699 355.056 58.9448L355.938 59.416L356.82 59.8872C357.994 57.6901 359.564 55.9446 361.533 54.632L360.978 53.8ZM355.938 59.416L355.054 58.9492C353.757 61.4052 353.114 64.0948 353.114 67H354.114H355.114C355.114 64.4012 355.687 62.0348 356.822 59.8828L355.938 59.416ZM354.114 67H353.114C353.114 69.8798 353.776 72.5702 355.104 75.0552L355.986 74.584L356.868 74.1128C355.7 71.9258 355.114 69.5602 355.114 67H354.114ZM355.986 74.584L355.107 75.0603C356.43 77.5027 358.219 79.4827 360.471 80.984L361.026 80.152L361.581 79.3199C359.609 78.0053 358.038 76.2733 356.865 74.1077L355.986 74.584ZM361.026 80.152L360.477 80.9879C362.786 82.5041 365.345 83.264 368.13 83.264V82.264V81.264C365.731 81.264 363.554 80.6159 361.575 79.3161L361.026 80.152ZM368.13 82.264V83.264C370.271 83.264 372.312 82.7791 374.241 81.8144L373.794 80.92L373.347 80.0256C371.692 80.8529 369.957 81.264 368.13 81.264V82.264ZM373.794 80.92L374.241 81.8144C376.149 80.8604 377.778 79.5937 379.117 78.0147L378.354 77.368L377.591 76.7213C376.434 78.0863 375.023 79.1876 373.347 80.0256L373.794 80.92ZM435.769 91V92H437.505L436.634 90.4982L435.769 91ZM424.249 91L423.384 91.5018L423.673 92H424.249V91ZM412.441 70.648L413.306 70.1462L412.59 68.9132L411.674 70.0055L412.441 70.648ZM404.713 79.864L403.946 79.2215L403.713 79.5002V79.864H404.713ZM404.713 91V92H405.713V91H404.713ZM394.729 91H393.729V92H394.729V91ZM394.729 19V18H393.729V19H394.729ZM404.713 19H405.713V18H404.713V19ZM404.713 64.36H403.713V67.1154L405.48 65.0014L404.713 64.36ZM422.569 43V42H422.101L421.802 42.3586L422.569 43ZM435.625 43L436.391 43.6422L437.767 42H435.625V43ZM419.257 62.536L418.49 61.8938L418.04 62.4313L418.392 63.0378L419.257 62.536ZM435.769 91V90H424.249V91V92H435.769V91ZM424.249 91L425.114 90.4982L413.306 70.1462L412.441 70.648L411.576 71.1498L423.384 91.5018L424.249 91ZM412.441 70.648L411.674 70.0055L403.946 79.2215L404.713 79.864L405.479 80.5065L413.207 71.2905L412.441 70.648ZM404.713 79.864H403.713V91H404.713H405.713V79.864H404.713ZM404.713 91V90H394.729V91V92H404.713V91ZM394.729 91H395.729V19H394.729H393.729V91H394.729ZM394.729 19V20H404.713V19V18H394.729V19ZM404.713 19H403.713V64.36H404.713H405.713V19H404.713ZM404.713 64.36L405.48 65.0014L423.336 43.6414L422.569 43L421.802 42.3586L403.946 63.7186L404.713 64.36ZM422.569 43V44H435.625V43V42H422.569V43ZM435.625 43L434.858 42.3578L418.49 61.8938L419.257 62.536L420.023 63.1782L436.391 43.6422L435.625 43ZM419.257 62.536L418.392 63.0378L434.904 91.5018L435.769 91L436.634 90.4982L420.122 62.0342L419.257 62.536ZM545.878 88.84L545.346 89.6867L545.349 89.6888L545.878 88.84ZM537.19 79.72L536.317 80.2075L536.322 80.2161L537.19 79.72ZM535.846 57.16L536.771 57.5398L536.772 57.5364L535.846 57.16ZM540.982 49.096L540.255 48.4091L540.255 48.4094L540.982 49.096ZM548.662 43.624L548.251 42.7123L548.251 42.7123L548.662 43.624ZM570.022 45.064L569.49 45.9107L569.493 45.9128L570.022 45.064ZM578.71 54.232L577.837 54.7195L577.84 54.725L578.71 54.232ZM580.102 76.792L579.177 76.4122L579.177 76.4122L580.102 76.792ZM574.918 84.856L574.191 84.1691L574.191 84.1694L574.918 84.856ZM567.286 90.28L566.875 89.3683L566.871 89.37L567.286 90.28ZM565.126 80.152L565.68 80.984L565.68 80.984L565.126 80.152ZM570.118 74.584L569.236 74.1128L569.233 74.1172L570.118 74.584ZM570.07 59.32L569.188 59.7912L569.193 59.8005L570.07 59.32ZM565.03 53.752L564.475 54.5841L564.484 54.5899L565.03 53.752ZM550.822 53.752L550.273 52.9161L550.267 52.9199L550.822 53.752ZM545.782 59.368L544.9 58.8968L544.895 58.9063L545.782 59.368ZM545.878 74.728L546.752 74.2424L546.752 74.2424L545.878 74.728ZM550.966 80.248L550.42 81.0859L550.427 81.0906L550.435 81.0953L550.966 80.248ZM557.974 92.248V91.248C553.739 91.248 549.891 90.1615 546.406 87.9912L545.878 88.84L545.349 89.6888C549.16 92.0625 553.376 93.248 557.974 93.248V92.248ZM545.878 88.84L546.41 87.9933C542.937 85.8111 540.155 82.8931 538.058 79.2239L537.19 79.72L536.322 80.2161C538.577 84.1629 541.587 87.3249 545.346 89.6867L545.878 88.84ZM537.19 79.72L538.063 79.2325C536.007 75.5498 534.974 71.4791 534.974 67H533.974H532.974C532.974 71.8009 534.085 76.2102 536.317 80.2075L537.19 79.72ZM533.974 67H534.974C534.974 63.6009 535.576 60.4509 536.771 57.5398L535.846 57.16L534.921 56.7802C533.62 59.9491 532.974 63.3591 532.974 67H533.974ZM535.846 57.16L536.772 57.5364C537.976 54.5739 539.622 51.9923 541.709 49.7826L540.982 49.096L540.255 48.4094C537.99 50.8077 536.212 53.6021 534.919 56.7836L535.846 57.16ZM540.982 49.096L541.708 49.7829C543.827 47.5411 546.28 45.7938 549.073 44.5357L548.662 43.624L548.251 42.7123C545.219 44.0782 542.552 45.9789 540.255 48.4091L540.982 49.096ZM548.662 43.624L549.073 44.5357C551.851 43.2838 554.815 42.656 557.974 42.656V41.656V40.656C554.541 40.656 551.296 41.3402 548.251 42.7123L548.662 43.624ZM557.974 41.656V42.656C562.208 42.656 566.039 43.7424 569.49 45.9107L570.022 45.064L570.554 44.2173C566.773 41.8416 562.571 40.656 557.974 40.656V41.656ZM570.022 45.064L569.493 45.9128C572.994 48.0933 575.773 51.0235 577.837 54.7195L578.71 54.232L579.583 53.7445C577.358 49.7605 574.345 46.5787 570.55 44.2152L570.022 45.064ZM578.71 54.232L577.84 54.725C579.926 58.4058 580.974 62.4903 580.974 67H581.974H582.974C582.974 62.1657 581.846 57.7382 579.58 53.739L578.71 54.232ZM581.974 67H580.974C580.974 70.3658 580.372 73.5 579.177 76.4122L580.102 76.792L581.027 77.1718C582.327 74.004 582.974 70.6102 582.974 67H581.974ZM580.102 76.792L579.177 76.4122C577.974 79.3411 576.313 81.9244 574.191 84.1691L574.918 84.856L575.644 85.5429C577.939 83.1156 579.733 80.3229 581.027 77.1718L580.102 76.792ZM574.918 84.856L574.191 84.1694C572.105 86.3776 569.669 88.1095 566.875 89.3683L567.286 90.28L567.697 91.1917C570.727 89.8265 573.378 87.9424 575.645 85.5426L574.918 84.856ZM567.286 90.28L566.871 89.37C564.128 90.6196 561.166 91.248 557.974 91.248V92.248V93.248C561.437 93.248 564.683 92.5644 567.7 91.19L567.286 90.28ZM557.974 82.264V83.264C560.818 83.264 563.396 82.5068 565.68 80.984L565.126 80.152L564.571 79.3199C562.631 80.6132 560.442 81.264 557.974 81.264V82.264ZM565.126 80.152L565.68 80.984C567.935 79.4811 569.711 77.498 571.002 75.0508L570.118 74.584L569.233 74.1172C568.093 76.278 566.541 78.0069 564.571 79.3199L565.126 80.152ZM570.118 74.584L571 75.0552C572.327 72.5702 572.99 69.8798 572.99 67H571.99H570.99C570.99 69.5602 570.404 71.9258 569.236 74.1128L570.118 74.584ZM571.99 67H572.99C572.99 64.0559 572.311 61.3295 570.947 58.8395L570.07 59.32L569.193 59.8005C570.388 61.9825 570.99 64.3761 570.99 67H571.99ZM570.07 59.32L570.952 58.8488C569.629 56.372 567.836 54.3868 565.576 52.9141L565.03 53.752L564.484 54.5899C566.448 55.8692 568.015 57.596 569.188 59.7912L570.07 59.32ZM565.03 53.752L565.584 52.9199C563.305 51.4 560.759 50.64 557.974 50.64V51.64V52.64C560.373 52.64 562.531 53.288 564.475 54.584L565.03 53.752ZM557.974 51.64V50.64C555.159 50.64 552.584 51.3985 550.273 52.9161L550.822 53.752L551.371 54.5879C553.348 53.2895 555.54 52.64 557.974 52.64V51.64ZM550.822 53.752L550.267 52.9199C548.012 54.4234 546.222 56.4219 544.9 58.8968L545.782 59.368L546.664 59.8392C547.838 57.6421 549.408 55.8966 551.376 54.584L550.822 53.752ZM545.782 59.368L544.895 58.9063C543.601 61.3913 542.958 64.0947 542.958 67H543.958H544.958C544.958 64.4013 545.53 62.0167 546.669 59.8297L545.782 59.368ZM543.958 67H542.958C542.958 70.0039 543.634 72.7492 545.004 75.2136L545.878 74.728L546.752 74.2424C545.561 72.0988 544.958 69.6921 544.958 67H543.958ZM545.878 74.728L545.004 75.2136C546.359 77.6533 548.165 79.6168 550.42 81.0859L550.966 80.248L551.512 79.4101C549.542 78.1272 547.957 76.4107 546.752 74.2424L545.878 74.728ZM550.966 80.248L550.435 81.0953C552.738 82.539 555.258 83.264 557.974 83.264V82.264V81.264C555.634 81.264 553.482 80.645 551.497 79.4007L550.966 80.248ZM589.729 91H588.729V92H589.729V91ZM589.729 43V42H588.729V43H589.729ZM599.713 43H600.713V42H599.713V43ZM599.713 48.088H598.713V50.8365L600.479 48.7306L599.713 48.088ZM605.857 43.384L605.429 42.4803L605.429 42.4803L605.857 43.384ZM619.057 42.376L619.987 42.7436L620.397 41.7051L619.32 41.4112L619.057 42.376ZM615.073 52.456L614.714 53.3893L615.639 53.745L616.003 52.8236L615.073 52.456ZM605.521 53.32L606.024 54.1844L606.035 54.1775L605.521 53.32ZM601.297 57.496L602.154 58.0105L602.154 58.0105L601.297 57.496ZM599.713 91V92H600.713V91H599.713ZM589.729 91H590.729V43H589.729H588.729V91H589.729ZM589.729 43V44H599.713V43V42H589.729V43ZM599.713 43H598.713V48.088H599.713H600.713V43H599.713ZM599.713 48.088L600.479 48.7306C602.047 46.8613 603.978 45.3805 606.285 44.2877L605.857 43.384L605.429 42.4803C602.872 43.6914 600.707 45.3466 598.947 47.4454L599.713 48.088ZM605.857 43.384L606.285 44.2877C608.577 43.2021 611.054 42.656 613.729 42.656V41.656V40.656C610.772 40.656 608.001 41.2619 605.429 42.4803L605.857 43.384ZM613.729 41.656V42.656C615.43 42.656 617.118 42.8837 618.794 43.3408L619.057 42.376L619.32 41.4112C617.476 40.9083 615.611 40.656 613.729 40.656V41.656ZM619.057 42.376L618.127 42.0084L614.143 52.0884L615.073 52.456L616.003 52.8236L619.987 42.7436L619.057 42.376ZM615.073 52.456L615.432 51.5227C614.077 51.0018 612.708 50.736 611.329 50.736V51.736V52.736C612.445 52.736 613.572 52.9502 614.714 53.3893L615.073 52.456ZM611.329 51.736V50.736C609.041 50.736 606.926 51.3105 605.006 52.4625L605.521 53.32L606.035 54.1775C607.635 53.2175 609.392 52.736 611.329 52.736V51.736ZM605.521 53.32L605.018 52.4557C603.111 53.5652 601.581 55.0781 600.439 56.9815L601.297 57.496L602.154 58.0105C603.124 56.3939 604.411 55.1228 606.024 54.1843L605.521 53.32ZM601.297 57.496L600.439 56.9815C599.286 58.904 598.713 61.0352 598.713 63.352H599.713H600.713C600.713 61.3808 601.196 59.608 602.154 58.0105L601.297 57.496ZM599.713 63.352H598.713V91H599.713H600.713V63.352H599.713ZM599.713 91V90H589.729V91V92H599.713V91ZM631.378 88.84L630.846 89.6867L630.849 89.6888L631.378 88.84ZM622.69 79.72L621.817 80.2075L621.822 80.2161L622.69 79.72ZM621.346 57.16L622.271 57.5398L622.272 57.5364L621.346 57.16ZM626.482 49.096L625.755 48.4091L625.755 48.4094L626.482 49.096ZM634.162 43.624L633.751 42.7123L633.751 42.7123L634.162 43.624ZM653.602 43.96L653.155 44.8545L653.162 44.8581L653.602 43.96ZM661.474 50.248L660.696 50.8772L660.7 50.8817L661.474 50.248ZM666.274 59.464L665.314 59.7457L665.315 59.7481L666.274 59.464ZM667.186 70.504V71.504H668.085L668.18 70.61L667.186 70.504ZM630.178 70.504V69.504H628.972L629.195 70.6891L630.178 70.504ZM632.578 76.504L631.743 77.0553L631.749 77.0639L631.755 77.0724L632.578 76.504ZM637.186 80.68L636.703 81.5556L636.709 81.559L637.186 80.68ZM643.474 82.264L643.46 83.264H643.474V82.264ZM650.098 80.44L649.581 79.5837L649.575 79.5874L650.098 80.44ZM655.042 75.4L655.268 74.4259L654.557 74.2609L654.183 74.8874L655.042 75.4ZM665.17 77.752L666.081 78.1632L666.582 77.0533L665.396 76.7779L665.17 77.752ZM656.482 88.216L657.052 89.0375L657.057 89.0343L656.482 88.216ZM629.842 62.872L628.857 62.6967L628.648 63.872H629.842V62.872ZM657.106 62.872V63.872H658.254L658.096 62.7344L657.106 62.872ZM654.658 56.632L653.83 57.1932L653.836 57.2013L653.841 57.2092L654.658 56.632ZM649.81 52.168L649.306 53.0318L649.314 53.0367L649.323 53.0415L649.81 52.168ZM637.138 52.12L636.651 51.2465L636.645 51.25L637.138 52.12ZM632.338 56.584L631.51 56.0228L631.508 56.026L632.338 56.584ZM643.474 92.248V91.248C639.239 91.248 635.391 90.1615 631.906 87.9912L631.378 88.84L630.849 89.6888C634.66 92.0625 638.876 93.248 643.474 93.248V92.248ZM631.378 88.84L631.91 87.9933C628.437 85.8111 625.655 82.8931 623.558 79.2239L622.69 79.72L621.822 80.2161C624.077 84.1629 627.087 87.3249 630.846 89.6867L631.378 88.84ZM622.69 79.72L623.563 79.2325C621.507 75.5498 620.474 71.4791 620.474 67H619.474H618.474C618.474 71.8009 619.585 76.2102 621.817 80.2075L622.69 79.72ZM619.474 67H620.474C620.474 63.6009 621.076 60.4509 622.271 57.5398L621.346 57.16L620.421 56.7802C619.12 59.9491 618.474 63.3591 618.474 67H619.474ZM621.346 57.16L622.272 57.5364C623.476 54.5739 625.122 51.9923 627.209 49.7826L626.482 49.096L625.755 48.4094C623.49 50.8077 621.712 53.6021 620.419 56.7836L621.346 57.16ZM626.482 49.096L627.208 49.7829C629.327 47.5411 631.78 45.7938 634.573 44.5357L634.162 43.624L633.751 42.7123C630.719 44.0782 628.052 45.9789 625.755 48.4091L626.482 49.096ZM634.162 43.624L634.573 44.5357C637.351 43.2838 640.315 42.656 643.474 42.656V41.656V40.656C640.041 40.656 636.796 41.3402 633.751 42.7123L634.162 43.624ZM643.474 41.656V42.656C647.01 42.656 650.231 43.3928 653.155 44.8544L653.602 43.96L654.049 43.0656C650.828 41.4552 647.298 40.656 643.474 40.656V41.656ZM653.602 43.96L653.162 44.8581C656.102 46.2974 658.611 48.301 660.697 50.8772L661.474 50.248L662.251 49.6188C659.984 46.819 657.246 44.6306 654.041 43.0619L653.602 43.96ZM661.474 50.248L660.7 50.8817C662.786 53.428 664.326 56.3786 665.314 59.7457L666.274 59.464L667.233 59.1823C666.174 55.5734 664.513 52.38 662.247 49.6143L661.474 50.248ZM666.274 59.464L665.315 59.7481C666.298 63.0668 666.595 66.6134 666.191 70.398L667.186 70.504L668.18 70.61C668.609 66.5866 668.297 62.7732 667.233 59.1799L666.274 59.464ZM667.186 70.504V69.504H630.178V70.504V71.504H667.186V70.504ZM630.178 70.504L629.195 70.6891C629.635 73.0217 630.483 75.1472 631.743 77.0553L632.578 76.504L633.412 75.9527C632.305 74.2768 631.553 72.4023 631.16 70.3189L630.178 70.504ZM632.578 76.504L631.755 77.0724C633.058 78.9585 634.71 80.4561 636.703 81.5556L637.186 80.68L637.669 79.8044C635.95 78.8559 634.529 77.5695 633.4 75.9356L632.578 76.504ZM637.186 80.68L636.709 81.559C638.749 82.6657 641.006 83.2298 643.46 83.2639L643.474 82.264L643.488 81.2641C641.333 81.2342 639.398 80.7423 637.663 79.801L637.186 80.68ZM643.474 82.264V83.264C646.081 83.264 648.472 82.6094 650.62 81.2926L650.098 80.44L649.575 79.5874C647.756 80.7026 645.73 81.264 643.474 81.264V82.264ZM650.098 80.44L650.614 81.2963C652.779 79.9904 654.542 78.1887 655.9 75.9126L655.042 75.4L654.183 74.8874C652.982 76.8993 651.448 78.4576 649.581 79.5837L650.098 80.44ZM655.042 75.4L654.816 76.3741L664.944 78.7261L665.17 77.752L665.396 76.7779L655.268 74.4259L655.042 75.4ZM665.17 77.752L664.258 77.3408C662.413 81.4311 659.634 84.7793 655.907 87.3977L656.482 88.216L657.057 89.0343C661.073 86.2127 664.087 82.5849 666.081 78.1632L665.17 77.752ZM656.482 88.216L655.911 87.3945C652.21 89.964 648.074 91.248 643.474 91.248V92.248V93.248C648.474 93.248 653.009 91.844 657.052 89.0375L656.482 88.216ZM629.842 62.872V63.872H657.106V62.872V61.872H629.842V62.872ZM657.106 62.872L658.096 62.7344C657.755 60.2759 656.881 58.0444 655.474 56.0548L654.658 56.632L653.841 57.2092C655.059 58.9316 655.817 60.8601 656.115 63.0096L657.106 62.872ZM654.658 56.632L655.485 56.0708C654.12 54.0563 652.388 52.4602 650.297 51.2945L649.81 52.168L649.323 53.0415C651.136 54.0518 652.636 55.4317 653.83 57.1932L654.658 56.632ZM649.81 52.168L650.314 51.3042C648.235 50.0917 645.948 49.488 643.474 49.488V50.488V51.488C645.607 51.488 647.545 52.0043 649.306 53.0318L649.81 52.168ZM643.474 50.488V49.488C641.034 49.488 638.754 50.0741 636.651 51.2465L637.138 52.12L637.625 52.9935C639.425 51.9899 641.369 51.488 643.474 51.488V50.488ZM637.138 52.12L636.645 51.25C634.586 52.4164 632.873 54.0119 631.51 56.0228L632.338 56.584L633.165 57.1452C634.362 55.3801 635.849 53.9996 637.631 52.99L637.138 52.12ZM632.338 56.584L631.508 56.026C630.178 58.0044 629.296 60.2322 628.857 62.6967L629.842 62.872L630.826 63.0473C631.219 60.8398 632.002 58.8756 633.168 57.142L632.338 56.584Z" fill="black" mask="url(#path-1-outside-1_4205_178)"/>
<path d="M511.016 39.5635L533.244 51.9873L533.945 52.3789L533.284 52.835L522.076 60.5635L521.822 60.7383L521.552 60.5908L510.771 54.6973L500.222 60.4482V75.5732L510.771 81.4297L521.549 75.4316L521.82 75.2812L522.075 75.457L533.283 83.165L533.946 83.6201L533.244 84.0127L511.016 96.4365L510.771 96.5732L510.528 96.4365L488.3 84.0127L488.044 83.8701V76.3682H445.5V59.6523H488.044V52.1299L488.3 51.9873L510.528 39.5635L510.771 39.4268L511.016 39.5635ZM451.5 63.5V72.5H480.5V63.5H451.5Z" fill="white"/>
<path d="M511.016 39.5635L510.771 39.9997L510.772 39.9999L511.016 39.5635ZM533.244 51.9873L533 52.4238L533 52.4238L533.244 51.9873ZM533.945 52.3789L534.229 52.7905L534.891 52.3342L534.189 51.9424L533.945 52.3789ZM533.284 52.835L533.568 53.2466L533.568 53.2465L533.284 52.835ZM522.076 60.5635L522.36 60.9753L522.36 60.9751L522.076 60.5635ZM521.822 60.7383L521.583 61.1773L521.853 61.3243L522.106 61.1501L521.822 60.7383ZM521.552 60.5908L521.312 61.0295L521.312 61.0298L521.552 60.5908ZM510.771 54.6973L511.01 54.2585L510.771 54.1276L510.531 54.2583L510.771 54.6973ZM500.222 60.4482L499.982 60.0092L499.722 60.1514V60.4482H500.222ZM500.222 75.5732H499.722V75.8676L499.979 76.0104L500.222 75.5732ZM510.771 81.4297L510.529 81.8668L510.772 82.0017L511.015 81.8666L510.771 81.4297ZM521.549 75.4316L521.307 74.9943L521.306 74.9947L521.549 75.4316ZM521.82 75.2812L522.104 74.8696L521.849 74.6937L521.578 74.8439L521.82 75.2812ZM522.075 75.457L521.791 75.8686L521.792 75.869L522.075 75.457ZM533.283 83.165L533 83.577L533 83.5773L533.283 83.165ZM533.946 83.6201L534.19 84.0565L534.893 83.6635L534.229 83.2079L533.946 83.6201ZM533.244 84.0127L533.488 84.4492L533.488 84.4491L533.244 84.0127ZM511.016 96.4365L510.772 96.0001L510.771 96.0003L511.016 96.4365ZM510.771 96.5732L510.526 97.0091L510.771 97.1466L511.016 97.0095L510.771 96.5732ZM510.528 96.4365L510.773 96.0007L510.772 96.0001L510.528 96.4365ZM488.3 84.0127L488.544 83.5762L488.543 83.5759L488.3 84.0127ZM488.044 83.8701H487.544V84.1639L487.801 84.3069L488.044 83.8701ZM488.044 76.3682H488.544V75.8682H488.044V76.3682ZM445.5 76.3682H445V76.8682H445.5V76.3682ZM445.5 59.6523V59.1523H445V59.6523H445.5ZM488.044 59.6523V60.1523H488.544V59.6523H488.044ZM488.044 52.1299L487.801 51.6931L487.544 51.8361V52.1299H488.044ZM488.3 51.9873L488.543 52.4241L488.544 52.4238L488.3 51.9873ZM510.528 39.5635L510.772 39.9999L510.773 39.9993L510.528 39.5635ZM510.771 39.4268L511.016 38.9905L510.771 38.8534L510.526 38.9909L510.771 39.4268ZM451.5 63.5V63H451V63.5H451.5ZM451.5 72.5H451V73H451.5V72.5ZM480.5 72.5V73H481V72.5H480.5ZM480.5 63.5H481V63H480.5V63.5ZM511.016 39.5635L510.772 39.9999L533 52.4238L533.244 51.9873L533.488 51.5508L511.26 39.127L511.016 39.5635ZM533.244 51.9873L533 52.4238L533.702 52.8154L533.945 52.3789L534.189 51.9424L533.488 51.5508L533.244 51.9873ZM533.945 52.3789L533.661 51.9673L533 52.4234L533.284 52.835L533.568 53.2465L534.229 52.7905L533.945 52.3789ZM533.284 52.835L533 52.4233L521.792 60.1519L522.076 60.5635L522.36 60.9751L533.568 53.2466L533.284 52.835ZM522.076 60.5635L521.793 60.1516L521.539 60.3264L521.822 60.7383L522.106 61.1501L522.36 60.9753L522.076 60.5635ZM521.822 60.7383L522.062 60.2993L521.791 60.1518L521.552 60.5908L521.312 61.0298L521.583 61.1773L521.822 60.7383ZM521.552 60.5908L521.792 60.1521L511.01 54.2585L510.771 54.6973L510.531 55.136L521.312 61.0295L521.552 60.5908ZM510.771 54.6973L510.531 54.2583L499.982 60.0092L500.222 60.4482L500.461 60.8872L511.01 55.1363L510.771 54.6973ZM500.222 60.4482H499.722V75.5732H500.222H500.722V60.4482H500.222ZM500.222 75.5732L499.979 76.0104L510.529 81.8668L510.771 81.4297L511.014 80.9925L500.464 75.1361L500.222 75.5732ZM510.771 81.4297L511.015 81.8666L521.792 75.8685L521.549 75.4316L521.306 74.9947L510.528 80.9928L510.771 81.4297ZM521.549 75.4316L521.791 75.869L522.063 75.7186L521.82 75.2812L521.578 74.8439L521.307 74.9943L521.549 75.4316ZM521.82 75.2812L521.536 75.6929L521.791 75.8686L522.075 75.457L522.359 75.0454L522.104 74.8696L521.82 75.2812ZM522.075 75.457L521.792 75.869L533 83.577L533.283 83.165L533.567 82.7531L522.359 75.0451L522.075 75.457ZM533.283 83.165L533 83.5773L533.663 84.0324L533.946 83.6201L534.229 83.2079L533.566 82.7528L533.283 83.165ZM533.946 83.6201L533.702 83.1837L533 83.5763L533.244 84.0127L533.488 84.4491L534.19 84.0565L533.946 83.6201ZM533.244 84.0127L533 83.5762L510.772 96.0001L511.016 96.4365L511.26 96.873L533.488 84.4492L533.244 84.0127ZM511.016 96.4365L510.771 96.0003L510.527 96.137L510.771 96.5732L511.016 97.0095L511.26 96.8728L511.016 96.4365ZM510.771 96.5732L511.017 96.1374L510.773 96.0007L510.528 96.4365L510.283 96.8724L510.526 97.0091L510.771 96.5732ZM510.528 96.4365L510.772 96.0001L488.544 83.5762L488.3 84.0127L488.056 84.4492L510.284 96.873L510.528 96.4365ZM488.3 84.0127L488.543 83.5759L488.287 83.4334L488.044 83.8701L487.801 84.3069L488.056 84.4495L488.3 84.0127ZM488.044 83.8701H488.544V76.3682H488.044H487.544V83.8701H488.044ZM488.044 76.3682V75.8682H445.5V76.3682V76.8682H488.044V76.3682ZM445.5 76.3682H446V59.6523H445.5H445V76.3682H445.5ZM445.5 59.6523V60.1523H488.044V59.6523V59.1523H445.5V59.6523ZM488.044 59.6523H488.544V52.1299H488.044H487.544V59.6523H488.044ZM488.044 52.1299L488.287 52.5666L488.543 52.4241L488.3 51.9873L488.056 51.5505L487.801 51.6931L488.044 52.1299ZM488.3 51.9873L488.544 52.4238L510.772 39.9999L510.528 39.5635L510.284 39.127L488.056 51.5508L488.3 51.9873ZM510.528 39.5635L510.773 39.9993L511.017 39.8626L510.771 39.4268L510.526 38.9909L510.283 39.1276L510.528 39.5635ZM510.771 39.4268L510.527 39.863L510.771 39.9997L511.016 39.5635L511.26 39.1272L511.016 38.9905L510.771 39.4268ZM451.5 63.5H451V72.5H451.5H452V63.5H451.5ZM451.5 72.5V73H480.5V72.5V72H451.5V72.5ZM480.5 72.5H481V63.5H480.5H480V72.5H480.5ZM480.5 63.5V63H451.5V63.5V64H480.5V63.5Z" fill="black"/>
</svg>
